<svg width="20" height="20" viewBox="0 0 20 20" fill="none" xmlns="http://www.w3.org/2000/svg">
<circle cx="10" cy="10" r="10" fill="#016450"/>
<path d="M10 8C8.916 8 8 8.916 8 10C8 11.084 8.916 12 10 12C11.084 12 12 11.084 12 10C12 8.916 11.084 8 10 8ZM10 11C9.4675 11 9 10.5325 9 10C9 9.4675 9.4675 9 10 9C10.5325 9 11 9.4675 11 10C11 10.5325 10.5325 11 10 11Z" fill="#FDFDFD"/>
<path d="M14 6.5H12.707L11.3535 5.1465C11.26 5.0525 11.133 5 11 5H9C8.867 5 8.74 5.0525 8.6465 5.1465L7.293 6.5H6C5.4485 6.5 5 6.9485 5 7.5V13C5 13.5515 5.4485 14 6 14H14C14.5515 14 15 13.5515 15 13V7.5C15 6.9485 14.5515 6.5 14 6.5ZM6 13V7.5H7.5C7.633 7.5 7.76 7.4475 7.8535 7.3535L9.207 6H10.793L12.1465 7.3535C12.24 7.4475 12.367 7.5 12.5 7.5H14L14.001 13H6Z" fill="#FDFDFD"/>
</svg>
