<svg width="16" height="16" viewBox="0 0 16 16" fill="none" xmlns="http://www.w3.org/2000/svg">
<path d="M8 1C6.61553 1 5.26216 1.41054 4.11101 2.17971C2.95987 2.94888 2.06266 4.04213 1.53285 5.32122C1.00303 6.6003 0.86441 8.00777 1.13451 9.36563C1.4046 10.7235 2.07129 11.9708 3.05026 12.9497C4.02922 13.9287 5.2765 14.5954 6.63437 14.8655C7.99224 15.1356 9.3997 14.997 10.6788 14.4672C11.9579 13.9373 13.0511 13.0401 13.8203 11.889C14.5895 10.7378 15 9.38447 15 8C15 6.14348 14.2625 4.36301 12.9497 3.05025C11.637 1.7375 9.85652 1 8 1V1ZM10.8275 9.415C11.0151 9.60264 11.1206 9.85714 11.1206 10.1225C11.1206 10.3879 11.0151 10.6424 10.8275 10.83C10.6399 11.0176 10.3854 11.1231 10.12 11.1231C9.85464 11.1231 9.60014 11.0176 9.4125 10.83L8 9.415L6.585 10.83C6.39736 11.0176 6.14287 11.1231 5.8775 11.1231C5.61214 11.1231 5.35764 11.0176 5.17 10.83C4.98236 10.6424 4.87695 10.3879 4.87695 10.1225C4.87695 9.85714 4.98236 9.60264 5.17 9.415L6.585 8L5.17 6.585C4.98236 6.39736 4.87695 6.14286 4.87695 5.8775C4.87695 5.61214 4.98236 5.35764 5.17 5.17C5.35764 4.98236 5.61214 4.87694 5.8775 4.87694C6.14287 4.87694 6.39736 4.98236 6.585 5.17L8 6.585L9.415 5.17C9.60264 4.98236 9.85714 4.87694 10.1225 4.87694C10.3879 4.87694 10.6424 4.98236 10.83 5.17C11.0176 5.35764 11.1231 5.61214 11.1231 5.8775C11.1231 6.14286 11.0176 6.39736 10.83 6.585L9.415 8L10.8275 9.415Z" fill="#767676"/>
</svg>
