<svg width="554" height="260" viewBox="0 0 554 260" fill="none" xmlns="http://www.w3.org/2000/svg">
<g clip-path="url(#clip0_6_308)">
<g filter="url(#filter0_d_6_308)">
<path fill-rule="evenodd" clip-rule="evenodd" d="M0 3.03696C0 1.3597 1.35969 0 3.03695 0H550.963C552.64 0 554 1.35969 554 3.03695V256.963C554 258.64 552.64 260 550.963 260H3.03694C1.35968 260 0 258.64 0 256.963V3.03696Z" fill="white"/>
<path d="M0.379619 3.03696C0.379619 1.56935 1.56935 0.379619 3.03695 0.379619H550.963C552.431 0.379619 553.62 1.56934 553.62 3.03695V256.963C553.62 258.431 552.431 259.62 550.963 259.62H3.03694C1.56934 259.62 0.379619 258.431 0.379619 256.963V3.03696Z" stroke="#EAEDF3" stroke-width="0.759237"/>
</g>
<path fill-rule="evenodd" clip-rule="evenodd" d="M0 0H554V69H0V0Z" fill="white" fill-opacity="0.01"/>
<path d="M25.12 43V31.64H29.264C30.16 31.64 30.976 31.7787 31.712 32.056C32.4587 32.3227 33.0933 32.7067 33.616 33.208C34.1493 33.6987 34.56 34.2907 34.848 34.984C35.136 35.6773 35.28 36.4507 35.28 37.304C35.28 38.1573 35.136 38.936 34.848 39.64C34.56 40.3333 34.1493 40.9307 33.616 41.432C33.0827 41.9333 32.448 42.3227 31.712 42.6C30.976 42.8667 30.16 43 29.264 43H25.12ZM27.072 41.256H29.168C30.0107 41.256 30.736 41.096 31.344 40.776C31.952 40.456 32.4213 40.0027 32.752 39.416C33.0933 38.8187 33.264 38.12 33.264 37.32C33.264 36.52 33.0933 35.8267 32.752 35.24C32.4213 34.6427 31.9467 34.184 31.328 33.864C30.72 33.544 30 33.384 29.168 33.384H27.072V41.256ZM39.5676 43.24C39.141 43.24 38.7463 43.176 38.3836 43.048C38.0316 42.92 37.7223 42.7387 37.4556 42.504C37.189 42.2693 36.981 41.992 36.8316 41.672C36.6823 41.352 36.6076 41 36.6076 40.616C36.6076 40.0827 36.7463 39.6187 37.0236 39.224C37.3116 38.8187 37.7116 38.504 38.2236 38.28C38.7356 38.056 39.333 37.944 40.0156 37.944C40.389 37.944 40.7463 37.9813 41.0876 38.056C41.429 38.12 41.7543 38.216 42.0636 38.344V37.816C42.0636 37.4427 41.9943 37.1173 41.8556 36.84C41.717 36.552 41.5196 36.328 41.2636 36.168C41.0076 36.008 40.6983 35.928 40.3356 35.928C39.9516 35.928 39.605 36.0293 39.2956 36.232C38.9863 36.4347 38.757 36.7173 38.6076 37.08L36.9116 36.696C37.0396 36.2267 37.269 35.8213 37.5996 35.48C37.941 35.1387 38.3463 34.872 38.8156 34.68C39.2956 34.488 39.813 34.392 40.3676 34.392C40.8903 34.392 41.365 34.4773 41.7916 34.648C42.229 34.8187 42.6023 35.0587 42.9116 35.368C43.221 35.6773 43.461 36.0453 43.6316 36.472C43.8023 36.8987 43.8876 37.3733 43.8876 37.896V43H42.2076L42.1436 41.896C41.9196 42.3013 41.5836 42.6267 41.1356 42.872C40.6876 43.1173 40.165 43.24 39.5676 43.24ZM38.4636 40.536C38.4636 40.7707 38.5276 40.984 38.6556 41.176C38.7836 41.3573 38.9596 41.5013 39.1836 41.608C39.4183 41.7147 39.6903 41.768 39.9996 41.768C40.3943 41.768 40.7463 41.6827 41.0556 41.512C41.365 41.3413 41.6103 41.112 41.7916 40.824C41.973 40.5253 42.0636 40.1893 42.0636 39.816V39.624C41.7863 39.5067 41.4983 39.416 41.1996 39.352C40.9116 39.2773 40.613 39.24 40.3036 39.24C39.749 39.24 39.301 39.3573 38.9596 39.592C38.629 39.8267 38.4636 40.1413 38.4636 40.536ZM47.899 32.296C47.899 32.4987 47.8457 32.6853 47.739 32.856C47.643 33.0267 47.5097 33.1653 47.339 33.272C47.1683 33.368 46.9817 33.416 46.779 33.416C46.5763 33.416 46.3897 33.368 46.219 33.272C46.0483 33.1653 45.9097 33.0267 45.803 32.856C45.707 32.6853 45.659 32.4987 45.659 32.296C45.659 32.0933 45.707 31.9067 45.803 31.736C45.9097 31.5653 46.0483 31.432 46.219 31.336C46.3897 31.2293 46.5763 31.176 46.779 31.176C46.9817 31.176 47.1683 31.2293 47.339 31.336C47.5097 31.432 47.643 31.5653 47.739 31.736C47.8457 31.9067 47.899 32.0933 47.899 32.296ZM45.867 43V34.632H47.707V43H45.867ZM49.6951 43V31.096H51.5351V43H49.6951ZM54.6432 46.328C54.3766 46.328 54.1259 46.3013 53.8913 46.248C53.6673 46.1947 53.4486 46.1093 53.2353 45.992L53.6353 44.536C53.7526 44.5893 53.8859 44.632 54.0353 44.664C54.1846 44.7067 54.3286 44.728 54.4673 44.728C54.7873 44.728 55.0646 44.6373 55.2993 44.456C55.5446 44.2747 55.7473 43.9813 55.9073 43.576L56.1633 42.92L52.7553 34.632H54.7713L57.0273 40.888L59.0753 34.632H61.0273L57.4753 44.008C57.1659 44.808 56.7766 45.3947 56.3073 45.768C55.8486 46.1413 55.2939 46.328 54.6432 46.328ZM68.2083 43.24C67.7816 43.24 67.3869 43.176 67.0243 43.048C66.6723 42.92 66.3629 42.7387 66.0963 42.504C65.8296 42.2693 65.6216 41.992 65.4723 41.672C65.3229 41.352 65.2483 41 65.2483 40.616C65.2483 40.0827 65.3869 39.6187 65.6643 39.224C65.9523 38.8187 66.3523 38.504 66.8643 38.28C67.3763 38.056 67.9736 37.944 68.6562 37.944C69.0296 37.944 69.3869 37.9813 69.7283 38.056C70.0696 38.12 70.3949 38.216 70.7043 38.344V37.816C70.7043 37.4427 70.6349 37.1173 70.4963 36.84C70.3576 36.552 70.1603 36.328 69.9043 36.168C69.6483 36.008 69.3389 35.928 68.9763 35.928C68.5923 35.928 68.2456 36.0293 67.9363 36.232C67.6269 36.4347 67.3976 36.7173 67.2483 37.08L65.5523 36.696C65.6803 36.2267 65.9096 35.8213 66.2403 35.48C66.5816 35.1387 66.9869 34.872 67.4563 34.68C67.9363 34.488 68.4536 34.392 69.0083 34.392C69.5309 34.392 70.0056 34.4773 70.4323 34.648C70.8696 34.8187 71.2429 35.0587 71.5523 35.368C71.8616 35.6773 72.1016 36.0453 72.2723 36.472C72.4429 36.8987 72.5283 37.3733 72.5283 37.896V43H70.8483L70.7843 41.896C70.5603 42.3013 70.2243 42.6267 69.7763 42.872C69.3283 43.1173 68.8056 43.24 68.2083 43.24ZM67.1043 40.536C67.1043 40.7707 67.1683 40.984 67.2963 41.176C67.4243 41.3573 67.6003 41.5013 67.8243 41.608C68.0589 41.7147 68.3309 41.768 68.6403 41.768C69.0349 41.768 69.3869 41.6827 69.6963 41.512C70.0056 41.3413 70.2509 41.112 70.4323 40.824C70.6136 40.5253 70.7043 40.1893 70.7043 39.816V39.624C70.4269 39.5067 70.1389 39.416 69.8403 39.352C69.5523 39.2773 69.2536 39.24 68.9443 39.24C68.3896 39.24 67.9416 39.3573 67.6003 39.592C67.2696 39.8267 67.1043 40.1413 67.1043 40.536ZM78.2836 43.24C77.6863 43.24 77.137 43.1333 76.6356 42.92C76.1343 42.696 75.697 42.392 75.3236 42.008C74.9503 41.6133 74.657 41.1493 74.4436 40.616C74.241 40.0827 74.1396 39.5013 74.1396 38.872C74.1396 38.2427 74.2463 37.656 74.4596 37.112C74.673 36.568 74.9663 36.0933 75.3396 35.688C75.713 35.2827 76.1503 34.968 76.6516 34.744C77.1636 34.5093 77.7183 34.392 78.3156 34.392C78.8916 34.392 79.4196 34.4987 79.8996 34.712C80.3796 34.9147 80.7903 35.208 81.1316 35.592C81.4836 35.9653 81.7343 36.408 81.8836 36.92L80.1396 37.336C79.9583 36.9307 79.7023 36.616 79.3716 36.392C79.0516 36.168 78.689 36.056 78.2836 36.056C77.857 36.056 77.473 36.1787 77.1316 36.424C76.7903 36.6693 76.5183 37.0053 76.3156 37.432C76.1236 37.848 76.0276 38.3227 76.0276 38.856C76.0276 39.3787 76.1236 39.848 76.3156 40.264C76.5076 40.6693 76.769 40.9893 77.0996 41.224C77.441 41.4587 77.8356 41.576 78.2836 41.576C78.7103 41.576 79.0996 41.4693 79.4516 41.256C79.8036 41.032 80.065 40.7173 80.2356 40.312L81.9636 40.712C81.8143 41.224 81.5583 41.672 81.1956 42.056C80.833 42.4293 80.401 42.7227 79.8996 42.936C79.3983 43.1387 78.8596 43.24 78.2836 43.24ZM86.8699 43.24C86.0272 43.24 85.3659 43 84.8859 42.52C84.4059 42.0293 84.1659 41.3307 84.1659 40.424V36.12H82.6939V34.632H84.1659V31.8H86.0059V34.632H88.4379V36.12H86.0059V40.232C86.0059 40.68 86.0965 41.0267 86.2779 41.272C86.4699 41.5067 86.7472 41.624 87.1099 41.624C87.3019 41.624 87.5099 41.5973 87.7339 41.544C87.9579 41.48 88.1659 41.3947 88.3579 41.288L88.7739 42.68C88.5285 42.8507 88.2405 42.984 87.9099 43.08C87.5899 43.1867 87.2432 43.24 86.8699 43.24ZM92.2584 32.296C92.2584 32.4987 92.205 32.6853 92.0984 32.856C92.0024 33.0267 91.869 33.1653 91.6984 33.272C91.5277 33.368 91.341 33.416 91.1384 33.416C90.9357 33.416 90.749 33.368 90.5784 33.272C90.4077 33.1653 90.269 33.0267 90.1624 32.856C90.0664 32.6853 90.0184 32.4987 90.0184 32.296C90.0184 32.0933 90.0664 31.9067 90.1624 31.736C90.269 31.5653 90.4077 31.432 90.5784 31.336C90.749 31.2293 90.9357 31.176 91.1384 31.176C91.341 31.176 91.5277 31.2293 91.6984 31.336C91.869 31.432 92.0024 31.5653 92.0984 31.736C92.205 31.9067 92.2584 32.0933 92.2584 32.296ZM90.2264 43V34.632H92.0664V43H90.2264ZM96.4865 43L93.2865 34.632H95.3025L97.4465 41.08L99.6065 34.632H101.559L98.3585 43H96.4865ZM106.411 43.24C105.793 43.24 105.222 43.1333 104.699 42.92C104.187 42.696 103.739 42.3867 103.355 41.992C102.971 41.5973 102.673 41.1333 102.459 40.6C102.257 40.056 102.155 39.4587 102.155 38.808C102.155 38.1787 102.257 37.5973 102.459 37.064C102.673 36.5307 102.961 36.0667 103.323 35.672C103.697 35.2667 104.134 34.952 104.635 34.728C105.137 34.504 105.681 34.392 106.267 34.392C106.854 34.392 107.387 34.4987 107.867 34.712C108.358 34.9147 108.779 35.208 109.131 35.592C109.494 35.976 109.771 36.4347 109.963 36.968C110.155 37.4907 110.251 38.072 110.251 38.712V39.256H104.059C104.113 39.7467 104.241 40.1733 104.443 40.536C104.657 40.888 104.929 41.16 105.259 41.352C105.59 41.544 105.974 41.64 106.411 41.64C107.286 41.64 107.969 41.2507 108.459 40.472L110.075 41.096C109.883 41.5333 109.601 41.9173 109.227 42.248C108.865 42.568 108.438 42.8133 107.947 42.984C107.467 43.1547 106.955 43.24 106.411 43.24ZM106.267 35.88C105.894 35.88 105.558 35.9653 105.259 36.136C104.971 36.3067 104.726 36.5467 104.523 36.856C104.321 37.1653 104.182 37.528 104.107 37.944H108.331C108.267 37.528 108.145 37.1653 107.963 36.856C107.782 36.5467 107.542 36.3067 107.243 36.136C106.955 35.9653 106.63 35.88 106.267 35.88ZM119.002 43.24C118.405 43.24 117.856 43.1333 117.354 42.92C116.853 42.696 116.416 42.392 116.042 42.008C115.669 41.6133 115.376 41.1493 115.162 40.616C114.96 40.0827 114.858 39.5013 114.858 38.872C114.858 38.2427 114.965 37.656 115.178 37.112C115.392 36.568 115.685 36.0933 116.058 35.688C116.432 35.2827 116.869 34.968 117.37 34.744C117.882 34.5093 118.437 34.392 119.034 34.392C119.61 34.392 120.138 34.4987 120.618 34.712C121.098 34.9147 121.509 35.208 121.85 35.592C122.202 35.9653 122.453 36.408 122.602 36.92L120.858 37.336C120.677 36.9307 120.421 36.616 120.09 36.392C119.77 36.168 119.408 36.056 119.002 36.056C118.576 36.056 118.192 36.1787 117.85 36.424C117.509 36.6693 117.237 37.0053 117.034 37.432C116.842 37.848 116.746 38.3227 116.746 38.856C116.746 39.3787 116.842 39.848 117.034 40.264C117.226 40.6693 117.488 40.9893 117.818 41.224C118.16 41.4587 118.554 41.576 119.002 41.576C119.429 41.576 119.818 41.4693 120.17 41.256C120.522 41.032 120.784 40.7173 120.954 40.312L122.682 40.712C122.533 41.224 122.277 41.672 121.914 42.056C121.552 42.4293 121.12 42.7227 120.618 42.936C120.117 43.1387 119.578 43.24 119.002 43.24ZM124.195 43V31.096H126.035V43H124.195ZM130.055 32.296C130.055 32.4987 130.002 32.6853 129.895 32.856C129.799 33.0267 129.666 33.1653 129.495 33.272C129.325 33.368 129.138 33.416 128.935 33.416C128.733 33.416 128.546 33.368 128.375 33.272C128.205 33.1653 128.066 33.0267 127.959 32.856C127.863 32.6853 127.815 32.4987 127.815 32.296C127.815 32.0933 127.863 31.9067 127.959 31.736C128.066 31.5653 128.205 31.432 128.375 31.336C128.546 31.2293 128.733 31.176 128.935 31.176C129.138 31.176 129.325 31.2293 129.495 31.336C129.666 31.432 129.799 31.5653 129.895 31.736C130.002 31.9067 130.055 32.0933 130.055 32.296ZM128.023 43V34.632H129.863V43H128.023ZM135.739 43.24C135.121 43.24 134.55 43.1333 134.027 42.92C133.515 42.696 133.067 42.3867 132.683 41.992C132.299 41.5973 132.001 41.1333 131.787 40.6C131.585 40.056 131.483 39.4587 131.483 38.808C131.483 38.1787 131.585 37.5973 131.787 37.064C132.001 36.5307 132.289 36.0667 132.651 35.672C133.025 35.2667 133.462 34.952 133.963 34.728C134.465 34.504 135.009 34.392 135.595 34.392C136.182 34.392 136.715 34.4987 137.195 34.712C137.686 34.9147 138.107 35.208 138.459 35.592C138.822 35.976 139.099 36.4347 139.291 36.968C139.483 37.4907 139.579 38.072 139.579 38.712V39.256H133.387C133.441 39.7467 133.569 40.1733 133.771 40.536C133.985 40.888 134.257 41.16 134.587 41.352C134.918 41.544 135.302 41.64 135.739 41.64C136.614 41.64 137.297 41.2507 137.787 40.472L139.403 41.096C139.211 41.5333 138.929 41.9173 138.555 42.248C138.193 42.568 137.766 42.8133 137.275 42.984C136.795 43.1547 136.283 43.24 135.739 43.24ZM135.595 35.88C135.222 35.88 134.886 35.9653 134.587 36.136C134.299 36.3067 134.054 36.5467 133.851 36.856C133.649 37.1653 133.51 37.528 133.435 37.944H137.659C137.595 37.528 137.473 37.1653 137.291 36.856C137.11 36.5467 136.87 36.3067 136.571 36.136C136.283 35.9653 135.958 35.88 135.595 35.88ZM141.148 43V34.632H142.828L142.892 35.784C143.138 35.3573 143.479 35.0213 143.916 34.776C144.364 34.52 144.876 34.392 145.452 34.392C146.082 34.392 146.626 34.5413 147.084 34.84C147.554 35.1387 147.916 35.56 148.172 36.104C148.428 36.648 148.556 37.288 148.556 38.024V43H146.716V38.232C146.716 37.5493 146.562 37.016 146.252 36.632C145.954 36.248 145.532 36.056 144.988 36.056C144.604 36.056 144.258 36.1467 143.948 36.328C143.65 36.5093 143.415 36.7547 143.244 37.064C143.074 37.3733 142.988 37.7307 142.988 38.136V43H141.148ZM153.761 43.24C152.918 43.24 152.257 43 151.777 42.52C151.297 42.0293 151.057 41.3307 151.057 40.424V36.12H149.585V34.632H151.057V31.8H152.897V34.632H155.329V36.12H152.897V40.232C152.897 40.68 152.987 41.0267 153.169 41.272C153.361 41.5067 153.638 41.624 154.001 41.624C154.193 41.624 154.401 41.5973 154.625 41.544C154.849 41.48 155.057 41.3947 155.249 41.288L155.665 42.68C155.419 42.8507 155.131 42.984 154.801 43.08C154.481 43.1867 154.134 43.24 153.761 43.24ZM159.981 43.24C159.437 43.24 158.93 43.1493 158.461 42.968C158.002 42.7867 157.608 42.5307 157.277 42.2C156.957 41.8587 156.728 41.4587 156.589 41L158.253 40.568C158.392 40.9307 158.616 41.2133 158.925 41.416C159.234 41.6187 159.592 41.72 159.997 41.72C160.413 41.72 160.754 41.624 161.021 41.432C161.288 41.2293 161.421 40.9733 161.421 40.664C161.421 40.3973 161.314 40.1733 161.101 39.992C160.888 39.8107 160.541 39.6773 160.061 39.592L159.533 39.496C158.637 39.336 157.96 39.048 157.501 38.632C157.053 38.216 156.829 37.6827 156.829 37.032C156.829 36.5093 156.962 36.0507 157.229 35.656C157.496 35.2613 157.864 34.952 158.333 34.728C158.802 34.504 159.341 34.392 159.949 34.392C160.472 34.392 160.952 34.4827 161.389 34.664C161.826 34.8453 162.194 35.1013 162.493 35.432C162.792 35.7627 163.005 36.152 163.133 36.6L161.485 37C161.357 36.6587 161.154 36.392 160.877 36.2C160.61 35.9973 160.296 35.896 159.933 35.896C159.56 35.896 159.25 35.992 159.005 36.184C158.76 36.3653 158.637 36.6 158.637 36.888C158.637 37.1333 158.744 37.336 158.957 37.496C159.181 37.656 159.554 37.784 160.077 37.88L160.605 37.976C161.458 38.1253 162.114 38.4187 162.573 38.856C163.032 39.2933 163.261 39.8373 163.261 40.488C163.261 40.8827 163.181 41.2507 163.021 41.592C162.861 41.9227 162.632 42.216 162.333 42.472C162.045 42.7173 161.698 42.904 161.293 43.032C160.898 43.1707 160.461 43.24 159.981 43.24Z" fill="#3E3F42"/>
<path fill-rule="evenodd" clip-rule="evenodd" d="M522 35.5999C522.884 35.5999 523.6 34.8836 523.6 33.9999C523.6 33.1162 522.884 32.3999 522 32.3999C521.116 32.3999 520.4 33.1162 520.4 33.9999C520.4 34.8836 521.116 35.5999 522 35.5999ZM515.6 35.6007C516.484 35.6007 517.2 34.8843 517.2 34.0007C517.2 33.117 516.484 32.4007 515.6 32.4007C514.716 32.4007 514 33.117 514 34.0007C514 34.8843 514.716 35.6007 515.6 35.6007ZM530 33.9999C530 34.8836 529.284 35.5999 528.4 35.5999C527.517 35.5999 526.8 34.8836 526.8 33.9999C526.8 33.1162 527.517 32.3999 528.4 32.3999C529.284 32.3999 530 33.1162 530 33.9999Z" fill="white" fill-opacity="0.01"/>
<mask id="mask0_6_308" style="mask-type:alpha" maskUnits="userSpaceOnUse" x="514" y="32" width="17" height="4">
<path fill-rule="evenodd" clip-rule="evenodd" d="M522 35.5999C522.884 35.5999 523.6 34.8836 523.6 33.9999C523.6 33.1162 522.884 32.3999 522 32.3999C521.116 32.3999 520.4 33.1162 520.4 33.9999C520.4 34.8836 521.116 35.5999 522 35.5999ZM515.6 35.6007C516.484 35.6007 517.2 34.8843 517.2 34.0007C517.2 33.117 516.484 32.4007 515.6 32.4007C514.716 32.4007 514 33.117 514 34.0007C514 34.8843 514.716 35.6007 515.6 35.6007ZM530 33.9999C530 34.8836 529.284 35.5999 528.4 35.5999C527.517 35.5999 526.8 34.8836 526.8 33.9999C526.8 33.1162 527.517 32.3999 528.4 32.3999C529.284 32.3999 530 33.1162 530 33.9999Z" fill="white"/>
</mask>
<g mask="url(#mask0_6_308)">
<rect x="513.2" y="25.1992" width="17.6" height="17.6" fill="#9EA0A5"/>
</g>
<path fill-rule="evenodd" clip-rule="evenodd" d="M0 68H554V69H0V68Z" fill="#EAEDF3"/>
<g clip-path="url(#clip1_6_308)">
<path fill-rule="evenodd" clip-rule="evenodd" d="M24 99H532.689V99.7592H24V99Z" fill="#EAEDF3"/>
<path fill-rule="evenodd" clip-rule="evenodd" d="M24 136.203H532.689V136.962H24V136.203Z" fill="#EAEDF3"/>
<path fill-rule="evenodd" clip-rule="evenodd" d="M24 173.405H532.689V174.165H24V173.405Z" fill="#EAEDF3"/>
<path fill-rule="evenodd" clip-rule="evenodd" d="M24 210.607H532.689V211.367H24V210.607Z" fill="#EAEDF3"/>
</g>
<g clip-path="url(#clip2_6_308)">
<path opacity="0.101741" fill-rule="evenodd" clip-rule="evenodd" d="M28.1658 128.963L106.494 166.165L184.822 150.98L263.15 113.019L341.478 135.796L419.806 182.109L498.134 160.091V211.719H28.1658V128.963Z" fill="#348373"/>
<path d="M28.1658 128.923L106.494 166.049L184.822 150.896L263.15 113.012L341.478 135.742L419.806 181.96L498.134 159.988" stroke="#348373" stroke-width="1.51847" stroke-linecap="round" stroke-linejoin="round"/>
<g clip-path="url(#clip3_6_308)">
<g clip-path="url(#clip4_6_308)">
<path d="M497.754 163.031C499.641 163.031 501.171 161.501 501.171 159.614C501.171 157.727 499.641 156.198 497.754 156.198C495.867 156.198 494.337 157.727 494.337 159.614C494.337 161.501 495.867 163.031 497.754 163.031Z" fill="#348373" stroke="white" stroke-width="1.51847"/>
<path d="M492.683 234.679C491.95 234.468 491.416 234.21 491.081 233.905C490.749 233.596 490.583 233.217 490.583 232.766C490.583 232.256 490.786 231.835 491.192 231.502C491.601 231.167 492.132 231 492.785 231C493.23 231 493.626 231.086 493.973 231.258C494.323 231.43 494.592 231.667 494.782 231.97C494.975 232.272 495.071 232.603 495.071 232.962H494.213C494.213 232.57 494.088 232.263 493.839 232.041C493.59 231.815 493.239 231.703 492.785 231.703C492.364 231.703 492.034 231.796 491.797 231.983C491.563 232.167 491.446 232.423 491.446 232.752C491.446 233.016 491.557 233.24 491.779 233.424C492.005 233.605 492.386 233.771 492.923 233.922C493.463 234.074 493.884 234.241 494.186 234.425C494.492 234.606 494.717 234.818 494.862 235.061C495.011 235.305 495.085 235.591 495.085 235.92C495.085 236.445 494.88 236.866 494.471 237.183C494.062 237.498 493.514 237.655 492.829 237.655C492.384 237.655 491.969 237.57 491.584 237.401C491.198 237.229 490.9 236.995 490.69 236.698C490.482 236.402 490.378 236.065 490.378 235.689H491.237C491.237 236.08 491.381 236.39 491.668 236.618C491.959 236.844 492.346 236.956 492.829 236.956C493.28 236.956 493.626 236.865 493.866 236.681C494.106 236.497 494.226 236.246 494.226 235.929C494.226 235.611 494.115 235.367 493.893 235.195C493.67 235.02 493.267 234.848 492.683 234.679ZM499.026 237.09C498.706 237.467 498.236 237.655 497.616 237.655C497.103 237.655 496.712 237.507 496.442 237.21C496.175 236.91 496.04 236.469 496.037 235.884V232.752H496.86V235.862C496.86 236.592 497.156 236.956 497.75 236.956C498.378 236.956 498.796 236.722 499.004 236.254V232.752H499.827V237.566H499.044L499.026 237.09ZM501.86 232.752L501.887 233.357C502.255 232.895 502.735 232.663 503.328 232.663C504.345 232.663 504.858 233.237 504.867 234.385V237.566H504.044V234.381C504.041 234.034 503.961 233.777 503.804 233.611C503.65 233.445 503.408 233.362 503.079 233.362C502.812 233.362 502.578 233.433 502.376 233.575C502.174 233.718 502.017 233.905 501.905 234.136V237.566H501.082V232.752H501.86Z" fill="#9EA0A5"/>
</g>
<g clip-path="url(#clip5_6_308)">
<path d="M419.552 183.246C421.439 183.246 422.969 181.716 422.969 179.829C422.969 177.942 421.439 176.413 419.552 176.413C417.666 176.413 416.136 177.942 416.136 179.829C416.136 181.716 417.666 183.246 419.552 183.246Z" fill="#348373" stroke="white" stroke-width="1.51847"/>
<path d="M415.16 233.635C414.428 233.424 413.894 233.166 413.559 232.861C413.226 232.552 413.06 232.173 413.06 231.722C413.06 231.212 413.264 230.791 413.67 230.458C414.079 230.123 414.61 229.956 415.262 229.956C415.707 229.956 416.103 230.042 416.45 230.214C416.8 230.386 417.07 230.623 417.26 230.926C417.453 231.228 417.549 231.559 417.549 231.918H416.691C416.691 231.526 416.566 231.219 416.317 230.997C416.068 230.771 415.716 230.659 415.262 230.659C414.841 230.659 414.512 230.752 414.275 230.939C414.041 231.123 413.923 231.379 413.923 231.709C413.923 231.972 414.035 232.196 414.257 232.38C414.482 232.561 414.864 232.727 415.4 232.879C415.94 233.03 416.361 233.197 416.664 233.381C416.969 233.562 417.195 233.774 417.34 234.017C417.488 234.261 417.562 234.547 417.562 234.876C417.562 235.401 417.358 235.822 416.949 236.139C416.539 236.454 415.992 236.611 415.307 236.611C414.862 236.611 414.447 236.526 414.061 236.357C413.676 236.185 413.378 235.951 413.167 235.654C412.96 235.358 412.856 235.021 412.856 234.645H413.714C413.714 235.036 413.858 235.346 414.146 235.574C414.437 235.8 414.824 235.913 415.307 235.913C415.758 235.913 416.103 235.821 416.344 235.637C416.584 235.453 416.704 235.202 416.704 234.885C416.704 234.568 416.593 234.323 416.37 234.151C416.148 233.976 415.744 233.804 415.16 233.635ZM421.504 236.522C421.456 236.427 421.418 236.258 421.388 236.015C421.006 236.412 420.549 236.611 420.018 236.611C419.544 236.611 419.154 236.477 418.848 236.211C418.546 235.941 418.394 235.6 418.394 235.187C418.394 234.686 418.584 234.298 418.964 234.022C419.346 233.743 419.883 233.604 420.574 233.604H421.375V233.226C421.375 232.938 421.289 232.709 421.117 232.54C420.945 232.368 420.691 232.282 420.356 232.282C420.063 232.282 419.816 232.357 419.618 232.505C419.419 232.653 419.32 232.833 419.32 233.043H418.492C418.492 232.803 418.577 232.572 418.746 232.349C418.918 232.124 419.149 231.946 419.44 231.815C419.733 231.685 420.055 231.62 420.405 231.62C420.96 231.62 421.394 231.759 421.709 232.038C422.023 232.314 422.186 232.695 422.198 233.181V235.396C422.198 235.838 422.254 236.19 422.367 236.451V236.522H421.504ZM420.138 235.895C420.396 235.895 420.641 235.828 420.872 235.695C421.104 235.561 421.271 235.388 421.375 235.174V234.186H420.73C419.722 234.186 419.217 234.482 419.217 235.072C419.217 235.33 419.303 235.531 419.475 235.677C419.647 235.822 419.868 235.895 420.138 235.895ZM424.605 230.543V231.709H425.503V232.345H424.605V235.33C424.605 235.523 424.645 235.668 424.725 235.766C424.805 235.861 424.941 235.908 425.134 235.908C425.229 235.908 425.359 235.89 425.526 235.855V236.522C425.309 236.581 425.098 236.611 424.894 236.611C424.526 236.611 424.249 236.5 424.062 236.277C423.875 236.055 423.782 235.739 423.782 235.33V232.345H422.905V231.709H423.782V230.543H424.605Z" fill="#9EA0A5"/>
</g>
<g clip-path="url(#clip6_6_308)">
<path d="M341.351 138.786C343.238 138.786 344.768 137.256 344.768 135.369C344.768 133.482 343.238 131.953 341.351 131.953C339.464 131.953 337.934 133.482 337.934 135.369C337.934 137.256 339.464 138.786 341.351 138.786Z" fill="#348373" stroke="white" stroke-width="1.51847"/>
<path d="M338.665 234.756H335.947V237.616H335.093V231.139H339.106V231.842H335.947V234.057H338.665V234.756ZM342.211 233.541C342.086 233.52 341.952 233.51 341.806 233.51C341.266 233.51 340.9 233.74 340.707 234.2V237.616H339.884V232.803H340.685L340.698 233.359C340.968 232.929 341.351 232.714 341.846 232.714C342.006 232.714 342.128 232.735 342.211 232.776V233.541ZM343.866 237.616H343.043V232.803H343.866V237.616ZM342.976 231.526C342.976 231.393 343.016 231.28 343.096 231.188C343.179 231.096 343.301 231.05 343.461 231.05C343.621 231.05 343.743 231.096 343.826 231.188C343.909 231.28 343.95 231.393 343.95 231.526C343.95 231.659 343.909 231.771 343.826 231.86C343.743 231.949 343.621 231.993 343.461 231.993C343.301 231.993 343.179 231.949 343.096 231.86C343.016 231.771 342.976 231.659 342.976 231.526Z" fill="#9EA0A5"/>
</g>
<g clip-path="url(#clip7_6_308)">
<path d="M263.15 116.055C265.037 116.055 266.566 114.526 266.566 112.639C266.566 110.752 265.037 109.222 263.15 109.222C261.263 109.222 259.733 110.752 259.733 112.639C259.733 114.526 261.263 116.055 263.15 116.055Z" fill="#348373" stroke="white" stroke-width="1.51847"/>
<path d="M260.636 231.889H258.554V237.663H257.704V231.889H255.627V231.186H260.636V231.889ZM262.291 233.432C262.656 232.985 263.13 232.761 263.715 232.761C264.732 232.761 265.245 233.335 265.254 234.482V237.663H264.431V234.478C264.428 234.131 264.348 233.874 264.191 233.708C264.036 233.542 263.795 233.459 263.465 233.459C263.199 233.459 262.964 233.53 262.763 233.673C262.561 233.815 262.404 234.002 262.291 234.233V237.663H261.468V230.83H262.291V233.432ZM269.458 237.187C269.137 237.564 268.667 237.752 268.048 237.752C267.534 237.752 267.143 237.604 266.873 237.307C266.606 237.008 266.471 236.566 266.468 235.981V232.85H267.291V235.959C267.291 236.689 267.588 237.054 268.181 237.054C268.81 237.054 269.228 236.819 269.436 236.351V232.85H270.259V237.663H269.476L269.458 237.187Z" fill="#9EA0A5"/>
</g>
<g clip-path="url(#clip8_6_308)">
<path d="M184.948 153.939C186.835 153.939 188.365 152.409 188.365 150.523C188.365 148.636 186.835 147.106 184.948 147.106C183.061 147.106 181.532 148.636 181.532 150.523C181.532 152.409 183.061 153.939 184.948 153.939Z" fill="#348373" stroke="white" stroke-width="1.51847"/>
<path d="M177.758 235.543L177.882 236.397L178.065 235.628L179.346 231.108H180.066L181.317 235.628L181.494 236.411L181.632 235.539L182.638 231.108H183.496L181.926 237.585H181.147L179.813 232.865L179.711 232.371L179.608 232.865L178.225 237.585H177.446L175.88 231.108H176.734L177.758 235.543ZM186.174 237.674C185.522 237.674 184.991 237.46 184.582 237.033C184.173 236.603 183.968 236.029 183.968 235.312V235.16C183.968 234.683 184.058 234.257 184.239 233.884C184.423 233.507 184.678 233.213 185.004 233.003C185.334 232.789 185.69 232.683 186.072 232.683C186.698 232.683 187.184 232.889 187.531 233.301C187.878 233.713 188.052 234.303 188.052 235.071V235.414H184.791C184.803 235.889 184.941 236.273 185.205 236.566C185.472 236.857 185.81 237.002 186.219 237.002C186.51 237.002 186.756 236.943 186.957 236.824C187.159 236.706 187.336 236.548 187.487 236.353L187.99 236.744C187.586 237.364 186.981 237.674 186.174 237.674ZM186.072 233.359C185.74 233.359 185.461 233.48 185.236 233.724C185.01 233.964 184.871 234.302 184.818 234.738H187.229V234.676C187.205 234.257 187.092 233.934 186.891 233.706C186.689 233.474 186.416 233.359 186.072 233.359ZM188.808 235.138C188.808 234.4 188.983 233.807 189.333 233.359C189.683 232.908 190.141 232.683 190.708 232.683C191.271 232.683 191.717 232.875 192.047 233.261V230.752H192.87V237.585H192.113L192.073 237.069C191.744 237.472 191.286 237.674 190.699 237.674C190.141 237.674 189.686 237.446 189.333 236.989C188.983 236.532 188.808 235.936 188.808 235.2V235.138ZM189.631 235.232C189.631 235.777 189.744 236.204 189.969 236.513C190.195 236.821 190.506 236.975 190.903 236.975C191.425 236.975 191.806 236.741 192.047 236.273V234.062C191.801 233.608 191.422 233.381 190.912 233.381C190.509 233.381 190.195 233.537 189.969 233.848C189.744 234.159 189.631 234.621 189.631 235.232Z" fill="#9EA0A5"/>
</g>
<g clip-path="url(#clip9_6_308)">
<path d="M106.747 169.092C108.634 169.092 110.163 167.563 110.163 165.676C110.163 163.789 108.634 162.259 106.747 162.259C104.86 162.259 103.33 163.789 103.33 165.676C103.33 167.563 104.86 169.092 106.747 169.092Z" fill="#348373" stroke="white" stroke-width="1.51847"/>
<path d="M103.401 231.779H101.319V237.553H100.47V231.779H98.3922V231.076H103.401V231.779ZM106.778 237.077C106.458 237.454 105.987 237.642 105.368 237.642C104.855 237.642 104.463 237.494 104.193 237.197C103.926 236.898 103.791 236.456 103.788 235.872V232.74H104.611V235.849C104.611 236.579 104.908 236.944 105.501 236.944C106.13 236.944 106.548 236.709 106.756 236.241V232.74H107.579V237.553H106.796L106.778 237.077ZM110.831 237.642C110.178 237.642 109.647 237.429 109.238 237.002C108.829 236.572 108.624 235.998 108.624 235.28V235.129C108.624 234.651 108.715 234.226 108.895 233.852C109.079 233.475 109.334 233.182 109.661 232.971C109.99 232.758 110.346 232.651 110.728 232.651C111.354 232.651 111.84 232.857 112.187 233.269C112.534 233.681 112.708 234.272 112.708 235.04V235.382H109.447C109.459 235.857 109.597 236.241 109.861 236.534C110.128 236.825 110.466 236.97 110.875 236.97C111.166 236.97 111.412 236.911 111.614 236.793C111.815 236.674 111.992 236.517 112.143 236.321L112.646 236.712C112.242 237.332 111.637 237.642 110.831 237.642ZM110.728 233.327C110.396 233.327 110.117 233.449 109.892 233.692C109.667 233.932 109.527 234.27 109.474 234.706H111.885V234.644C111.861 234.226 111.749 233.902 111.547 233.674C111.345 233.443 111.072 233.327 110.728 233.327Z" fill="#9EA0A5"/>
</g>
<g clip-path="url(#clip10_6_308)">
<path d="M28.5454 131.966C30.4323 131.966 31.962 130.437 31.962 128.55C31.962 126.663 30.4323 125.133 28.5454 125.133C26.6585 125.133 25.1288 126.663 25.1288 128.55C25.1288 130.437 26.6585 131.966 28.5454 131.966Z" fill="#348373" stroke="white" stroke-width="1.51847"/>
<path d="M23.9323 231.153L26.0498 236.438L28.1674 231.153H29.2751V237.63H28.421V235.107L28.501 232.385L26.3746 237.63H25.7206L23.5986 232.398L23.6831 235.107V237.63H22.829V231.153H23.9323ZM30.4362 235.179C30.4362 234.707 30.5281 234.283 30.712 233.906C30.8989 233.53 31.1569 233.239 31.4861 233.034C31.8182 232.83 32.1964 232.727 32.6205 232.727C33.2759 232.727 33.8053 232.954 34.2087 233.408C34.615 233.862 34.8181 234.465 34.8181 235.219V235.277C34.8181 235.745 34.7277 236.166 34.5468 236.54C34.3688 236.911 34.1123 237.2 33.7771 237.407C33.445 237.615 33.0624 237.719 32.6294 237.719C31.9769 237.719 31.4475 237.492 31.0412 237.038C30.6379 236.584 30.4362 235.984 30.4362 235.237V235.179ZM31.2636 235.277C31.2636 235.81 31.3867 236.239 31.6329 236.562C31.882 236.885 32.2142 237.047 32.6294 237.047C33.0476 237.047 33.3797 236.884 33.6259 236.558C33.872 236.229 33.9951 235.769 33.9951 235.179C33.9951 234.651 33.8691 234.224 33.617 233.897C33.3679 233.568 33.0357 233.404 32.6205 233.404C32.2142 233.404 31.8865 233.565 31.6373 233.889C31.3882 234.212 31.2636 234.674 31.2636 235.277ZM36.6287 232.816L36.6554 233.421C37.0232 232.959 37.5036 232.727 38.0968 232.727C39.114 232.727 39.6271 233.301 39.636 234.449V237.63H38.813V234.445C38.8101 234.098 38.73 233.841 38.5728 233.675C38.4186 233.509 38.1769 233.426 37.8477 233.426C37.5807 233.426 37.3464 233.497 37.1448 233.639C36.9431 233.782 36.7859 233.969 36.6732 234.2V237.63H35.8502V232.816H36.6287Z" fill="#9EA0A5"/>
</g>
</g>
</g>
<g clip-path="url(#clip11_6_308)">
<path d="M513.958 117.54V116.088C513.401 116.029 512.917 115.835 512.506 115.505C512.095 115.175 511.798 114.735 511.615 114.185L512.429 113.987C512.722 114.764 513.232 115.208 513.958 115.318V112.425H513.936C513.225 112.293 512.689 112.051 512.33 111.699C511.978 111.347 511.802 110.911 511.802 110.39C511.802 110.009 511.89 109.668 512.066 109.367C512.249 109.066 512.502 108.824 512.825 108.641C513.155 108.45 513.533 108.34 513.958 108.311V106.98H514.596V108.322C515.131 108.388 515.586 108.582 515.96 108.905C516.334 109.22 516.594 109.642 516.741 110.17L515.938 110.368C515.799 109.994 515.619 109.704 515.399 109.499C515.186 109.286 514.919 109.154 514.596 109.103V111.699L514.783 111.732C515.208 111.805 515.571 111.937 515.872 112.128C516.18 112.319 516.415 112.561 516.576 112.854C516.745 113.14 516.829 113.474 516.829 113.855C516.829 114.266 516.734 114.632 516.543 114.955C516.352 115.278 516.088 115.542 515.751 115.747C515.421 115.945 515.036 116.062 514.596 116.099V117.54H513.958ZM512.66 110.346C512.66 110.661 512.766 110.918 512.979 111.116C513.192 111.314 513.518 111.464 513.958 111.567V109.081C513.555 109.125 513.236 109.261 513.001 109.488C512.774 109.715 512.66 110.001 512.66 110.346ZM515.982 113.899C515.982 113.554 515.865 113.268 515.63 113.041C515.395 112.814 515.051 112.649 514.596 112.546V115.318C514.875 115.289 515.117 115.212 515.322 115.087C515.535 114.955 515.696 114.79 515.806 114.592C515.923 114.387 515.982 114.156 515.982 113.899ZM520.016 116.165C519.356 116.165 518.776 115.989 518.278 115.637L518.619 114.911C519.007 115.197 519.462 115.34 519.983 115.34C520.503 115.34 520.951 115.208 521.325 114.944C521.699 114.673 521.981 114.291 522.172 113.8C522.37 113.301 522.469 112.711 522.469 112.029V111.919C522.307 112.33 522.047 112.652 521.688 112.887C521.328 113.114 520.907 113.228 520.423 113.228C520.056 113.228 519.719 113.166 519.411 113.041C519.103 112.916 518.831 112.744 518.597 112.524C518.369 112.304 518.193 112.047 518.069 111.754C517.944 111.453 517.882 111.131 517.882 110.786C517.882 110.434 517.948 110.104 518.08 109.796C518.212 109.488 518.399 109.22 518.641 108.993C518.883 108.758 519.165 108.575 519.488 108.443C519.81 108.311 520.159 108.245 520.533 108.245C520.951 108.245 521.332 108.333 521.677 108.509C522.021 108.685 522.318 108.938 522.568 109.268C522.817 109.598 523.008 109.998 523.14 110.467C523.279 110.929 523.349 111.45 523.349 112.029C523.349 112.638 523.272 113.195 523.118 113.701C522.964 114.207 522.744 114.643 522.458 115.01C522.172 115.377 521.82 115.663 521.402 115.868C520.991 116.066 520.529 116.165 520.016 116.165ZM520.5 112.414C520.822 112.414 521.112 112.344 521.369 112.205C521.633 112.058 521.838 111.864 521.985 111.622C522.139 111.373 522.216 111.094 522.216 110.786C522.216 110.551 522.172 110.331 522.084 110.126C521.996 109.913 521.875 109.73 521.721 109.576C521.567 109.415 521.383 109.29 521.171 109.202C520.965 109.114 520.742 109.07 520.5 109.07C520.265 109.07 520.045 109.114 519.84 109.202C519.634 109.29 519.455 109.411 519.301 109.565C519.147 109.719 519.026 109.899 518.938 110.104C518.85 110.309 518.806 110.533 518.806 110.775C518.806 111.09 518.879 111.373 519.026 111.622C519.172 111.864 519.37 112.058 519.62 112.205C519.876 112.344 520.17 112.414 520.5 112.414ZM524.736 116V108.19H525.66V111.721L529.246 108.19H530.456L526.672 111.875L530.852 116H529.521L525.66 112.161V116H524.736Z" fill="#9EA0A5"/>
<path d="M513.937 155.54V154.088C513.379 154.029 512.895 153.835 512.485 153.505C512.074 153.175 511.777 152.735 511.594 152.185L512.408 151.987C512.701 152.764 513.211 153.208 513.937 153.318V150.425H513.915C513.203 150.293 512.668 150.051 512.309 149.699C511.957 149.347 511.781 148.911 511.781 148.39C511.781 148.009 511.869 147.668 512.045 147.367C512.228 147.066 512.481 146.824 512.804 146.641C513.134 146.45 513.511 146.34 513.937 146.311V144.98H514.575V146.322C515.11 146.388 515.565 146.582 515.939 146.905C516.313 147.22 516.573 147.642 516.72 148.17L515.917 148.368C515.777 147.994 515.598 147.704 515.378 147.499C515.165 147.286 514.897 147.154 514.575 147.103V149.699L514.762 149.732C515.187 149.805 515.55 149.937 515.851 150.128C516.159 150.319 516.393 150.561 516.555 150.854C516.723 151.14 516.808 151.474 516.808 151.855C516.808 152.266 516.712 152.632 516.522 152.955C516.331 153.278 516.067 153.542 515.73 153.747C515.4 153.945 515.015 154.062 514.575 154.099V155.54H513.937ZM512.639 148.346C512.639 148.661 512.745 148.918 512.958 149.116C513.17 149.314 513.497 149.464 513.937 149.567V147.081C513.533 147.125 513.214 147.261 512.98 147.488C512.752 147.715 512.639 148.001 512.639 148.346ZM515.961 151.899C515.961 151.554 515.843 151.268 515.609 151.041C515.374 150.814 515.029 150.649 514.575 150.546V153.318C514.853 153.289 515.095 153.212 515.301 153.087C515.513 152.955 515.675 152.79 515.785 152.592C515.902 152.387 515.961 152.156 515.961 151.899ZM520.82 154.165C520.402 154.165 520.021 154.081 519.676 153.912C519.331 153.736 519.034 153.49 518.785 153.175C518.536 152.852 518.341 152.467 518.202 152.02C518.07 151.565 518.004 151.056 518.004 150.491C518.004 149.875 518.085 149.31 518.246 148.797C518.407 148.276 518.635 147.825 518.928 147.444C519.221 147.063 519.573 146.769 519.984 146.564C520.395 146.351 520.849 146.245 521.348 146.245C521.663 146.245 521.964 146.289 522.25 146.377C522.536 146.465 522.804 146.597 523.053 146.773L522.712 147.499C522.521 147.36 522.312 147.253 522.085 147.18C521.858 147.107 521.623 147.07 521.381 147.07C521.007 147.07 520.666 147.154 520.358 147.323C520.057 147.484 519.793 147.715 519.566 148.016C519.346 148.317 519.177 148.676 519.06 149.094C518.943 149.505 518.884 149.963 518.884 150.469C519.045 150.051 519.306 149.725 519.665 149.49C520.024 149.248 520.45 149.127 520.941 149.127C521.3 149.127 521.634 149.189 521.942 149.314C522.25 149.439 522.518 149.615 522.745 149.842C522.98 150.069 523.159 150.333 523.284 150.634C523.409 150.927 523.471 151.25 523.471 151.602C523.471 151.961 523.405 152.295 523.273 152.603C523.141 152.911 522.954 153.182 522.712 153.417C522.47 153.652 522.188 153.835 521.865 153.967C521.542 154.099 521.194 154.165 520.82 154.165ZM520.853 153.34C521.088 153.34 521.308 153.296 521.513 153.208C521.718 153.12 521.898 152.999 522.052 152.845C522.206 152.684 522.327 152.497 522.415 152.284C522.503 152.071 522.547 151.844 522.547 151.602C522.547 151.279 522.474 150.993 522.327 150.744C522.18 150.495 521.979 150.3 521.722 150.161C521.473 150.014 521.187 149.941 520.864 149.941C520.534 149.941 520.237 150.014 519.973 150.161C519.716 150.3 519.511 150.495 519.357 150.744C519.21 150.993 519.137 151.272 519.137 151.58C519.137 151.822 519.181 152.049 519.269 152.262C519.357 152.475 519.478 152.662 519.632 152.823C519.786 152.984 519.966 153.113 520.171 153.208C520.384 153.296 520.611 153.34 520.853 153.34ZM524.736 154V146.19H525.66V149.721L529.246 146.19H530.456L526.672 149.875L530.852 154H529.521L525.66 150.161V154H524.736Z" fill="#9EA0A5"/>
<path d="M521.252 193.54V192.088C520.695 192.029 520.211 191.835 519.8 191.505C519.389 191.175 519.092 190.735 518.909 190.185L519.723 189.987C520.016 190.764 520.526 191.208 521.252 191.318V188.425H521.23C520.519 188.293 519.983 188.051 519.624 187.699C519.272 187.347 519.096 186.911 519.096 186.39C519.096 186.009 519.184 185.668 519.36 185.367C519.543 185.066 519.796 184.824 520.119 184.641C520.449 184.45 520.827 184.34 521.252 184.311V182.98H521.89V184.322C522.425 184.388 522.88 184.582 523.254 184.905C523.628 185.22 523.888 185.642 524.035 186.17L523.232 186.368C523.093 185.994 522.913 185.704 522.693 185.499C522.48 185.286 522.213 185.154 521.89 185.103V187.699L522.077 187.732C522.502 187.805 522.865 187.937 523.166 188.128C523.474 188.319 523.709 188.561 523.87 188.854C524.039 189.14 524.123 189.474 524.123 189.855C524.123 190.266 524.028 190.632 523.837 190.955C523.646 191.278 523.382 191.542 523.045 191.747C522.715 191.945 522.33 192.062 521.89 192.099V193.54H521.252ZM519.954 186.346C519.954 186.661 520.06 186.918 520.273 187.116C520.486 187.314 520.812 187.464 521.252 187.567V185.081C520.849 185.125 520.53 185.261 520.295 185.488C520.068 185.715 519.954 186.001 519.954 186.346ZM523.276 189.899C523.276 189.554 523.159 189.268 522.924 189.041C522.689 188.814 522.345 188.649 521.89 188.546V191.318C522.169 191.289 522.411 191.212 522.616 191.087C522.829 190.955 522.99 190.79 523.1 190.592C523.217 190.387 523.276 190.156 523.276 189.899ZM527.838 192.165C527.412 192.165 527.02 192.092 526.661 191.945C526.309 191.798 526.004 191.582 525.748 191.296C525.498 191.01 525.315 190.662 525.198 190.251L526.045 190.053C526.184 190.464 526.408 190.783 526.716 191.01C527.024 191.23 527.39 191.34 527.816 191.34C528.138 191.34 528.428 191.278 528.685 191.153C528.941 191.028 529.143 190.856 529.29 190.636C529.436 190.416 529.51 190.167 529.51 189.888C529.51 189.595 529.436 189.342 529.29 189.129C529.15 188.916 528.949 188.751 528.685 188.634C528.428 188.517 528.124 188.458 527.772 188.458H526.947V187.633H527.739C528.069 187.633 528.351 187.578 528.586 187.468C528.828 187.358 529.015 187.204 529.147 187.006C529.279 186.801 529.345 186.566 529.345 186.302C529.345 186.06 529.279 185.847 529.147 185.664C529.022 185.473 528.85 185.327 528.63 185.224C528.41 185.121 528.153 185.07 527.86 185.07C527.456 185.07 527.108 185.18 526.815 185.4C526.529 185.613 526.323 185.913 526.199 186.302L525.363 186.104C525.458 185.723 525.623 185.396 525.858 185.125C526.1 184.846 526.397 184.63 526.749 184.476C527.101 184.322 527.486 184.245 527.904 184.245C528.241 184.245 528.553 184.296 528.839 184.399C529.132 184.494 529.385 184.634 529.598 184.817C529.81 184.993 529.975 185.206 530.093 185.455C530.21 185.697 530.269 185.965 530.269 186.258C530.269 186.654 530.17 187.002 529.972 187.303C529.774 187.604 529.488 187.838 529.114 188.007C529.524 188.154 529.847 188.392 530.082 188.722C530.316 189.052 530.434 189.444 530.434 189.899C530.434 190.214 530.368 190.511 530.236 190.79C530.104 191.061 529.92 191.303 529.686 191.516C529.451 191.721 529.176 191.883 528.861 192C528.545 192.11 528.204 192.165 527.838 192.165ZM524.736 207V199.19H525.66V202.721L529.246 199.19H530.456L526.672 202.875L530.852 207H529.521L525.66 203.161V207H524.736Z" fill="#9EA0A5"/>
</g>
</g>
<defs>
<filter id="filter0_d_6_308" x="-2.27771" y="-1.51847" width="558.555" height="264.555" filterUnits="userSpaceOnUse" color-interpolation-filters="sRGB">
<feFlood flood-opacity="0" result="BackgroundImageFix"/>
<feColorMatrix in="SourceAlpha" type="matrix" values="0 0 0 0 0 0 0 0 0 0 0 0 0 0 0 0 0 0 127 0" result="hardAlpha"/>
<feOffset dy="0.759237"/>
<feGaussianBlur stdDeviation="1.13886"/>
<feColorMatrix type="matrix" values="0 0 0 0 0 0 0 0 0 0 0 0 0 0 0 0 0 0 0.04 0"/>
<feBlend mode="normal" in2="BackgroundImageFix" result="effect1_dropShadow_6_308"/>
<feBlend mode="normal" in="SourceGraphic" in2="effect1_dropShadow_6_308" result="shape"/>
</filter>
<clipPath id="clip0_6_308">
<rect width="554" height="260" fill="white"/>
</clipPath>
<clipPath id="clip1_6_308">
<rect width="508.689" height="112.367" fill="white" transform="translate(24 99)"/>
</clipPath>
<clipPath id="clip2_6_308">
<rect width="490" height="131" fill="white" transform="translate(22 110)"/>
</clipPath>
<clipPath id="clip3_6_308">
<rect width="486.671" height="131.077" fill="white" transform="translate(19.0548 109.981)"/>
</clipPath>
<clipPath id="clip4_6_308">
<rect width="15.944" height="84.1012" fill="white" transform="translate(489.782 156.957)"/>
</clipPath>
<clipPath id="clip5_6_308">
<rect width="13.6663" height="62.8865" fill="white" transform="translate(412.34 178.172)"/>
</clipPath>
<clipPath id="clip6_6_308">
<rect width="10.6293" height="108.347" fill="white" transform="translate(334.138 132.712)"/>
</clipPath>
<clipPath id="clip7_6_308">
<rect width="15.944" height="131.077" fill="white" transform="translate(255.178 109.981)"/>
</clipPath>
<clipPath id="clip8_6_308">
<rect width="18.2217" height="93.1932" fill="white" transform="translate(175.458 147.865)"/>
</clipPath>
<clipPath id="clip9_6_308">
<rect width="15.1847" height="78.0399" fill="white" transform="translate(98.0155 163.019)"/>
</clipPath>
<clipPath id="clip10_6_308">
<rect width="21" height="115" fill="white" transform="translate(22 126)"/>
</clipPath>
<clipPath id="clip11_6_308">
<rect width="24" height="89" fill="white" transform="translate(512 105)"/>
</clipPath>
</defs>
</svg>
