<svg width="24" height="89" viewBox="0 0 24 89" fill="none" xmlns="http://www.w3.org/2000/svg">
<g clip-path="url(#clip0_6_304)">
<path d="M1.95808 12.54V11.088C1.40074 11.0293 0.916745 10.835 0.506078 10.505C0.0954115 10.175 -0.201589 9.735 -0.384922 9.185L0.429078 8.987C0.722412 9.76433 1.23208 10.208 1.95808 10.318V7.425H1.93608C1.22474 7.293 0.689412 7.051 0.330078 6.699C-0.0219218 6.347 -0.197922 5.91067 -0.197922 5.39C-0.197922 5.00867 -0.109922 4.66767 0.0660782 4.367C0.249411 4.06633 0.502411 3.82433 0.825078 3.641C1.15508 3.45033 1.53274 3.34033 1.95808 3.311V1.98H2.59608V3.322C3.13141 3.388 3.58608 3.58233 3.96008 3.905C4.33408 4.22033 4.59441 4.642 4.74108 5.17L3.93808 5.368C3.79874 4.994 3.61908 4.70433 3.39908 4.499C3.18641 4.28633 2.91875 4.15433 2.59608 4.103V6.699L2.78308 6.732C3.20841 6.80533 3.57141 6.93733 3.87208 7.128C4.18008 7.31867 4.41475 7.56067 4.57608 7.854C4.74475 8.14 4.82908 8.47367 4.82908 8.855C4.82908 9.26567 4.73375 9.63233 4.54308 9.955C4.35241 10.2777 4.08841 10.5417 3.75108 10.747C3.42108 10.945 3.03608 11.0623 2.59608 11.099V12.54H1.95808ZM0.660078 5.346C0.660078 5.66133 0.766412 5.918 0.979078 6.116C1.19174 6.314 1.51808 6.46433 1.95808 6.567V4.081C1.55474 4.125 1.23574 4.26067 1.00108 4.488C0.773745 4.71533 0.660078 5.00133 0.660078 5.346ZM3.98208 8.899C3.98208 8.55433 3.86474 8.26833 3.63008 8.041C3.39541 7.81367 3.05074 7.64867 2.59608 7.546V10.318C2.87475 10.2887 3.11674 10.2117 3.32208 10.087C3.53475 9.955 3.69608 9.79 3.80608 9.592C3.92341 9.38667 3.98208 9.15567 3.98208 8.899ZM8.01581 11.165C7.35581 11.165 6.77648 10.989 6.27781 10.637L6.61881 9.911C7.00748 10.197 7.46215 10.34 7.98281 10.34C8.50348 10.34 8.95081 10.208 9.32481 9.944C9.69881 9.67267 9.98115 9.29133 10.1718 8.8C10.3698 8.30133 10.4688 7.711 10.4688 7.029V6.919C10.3075 7.32967 10.0471 7.65233 9.68781 7.887C9.32848 8.11433 8.90681 8.228 8.42281 8.228C8.05615 8.228 7.71881 8.16567 7.41081 8.041C7.10281 7.91633 6.83148 7.744 6.59681 7.524C6.36948 7.304 6.19348 7.04733 6.06881 6.754C5.94415 6.45333 5.88181 6.13067 5.88181 5.786C5.88181 5.434 5.94781 5.104 6.07981 4.796C6.21181 4.488 6.39881 4.22033 6.64081 3.993C6.88281 3.75833 7.16515 3.575 7.48781 3.443C7.81048 3.311 8.15881 3.245 8.53281 3.245C8.95081 3.245 9.33215 3.333 9.67681 3.509C10.0215 3.685 10.3185 3.938 10.5678 4.268C10.8171 4.598 11.0078 4.99767 11.1398 5.467C11.2791 5.929 11.3488 6.44967 11.3488 7.029C11.3488 7.63767 11.2718 8.195 11.1178 8.701C10.9638 9.207 10.7438 9.64333 10.4578 10.01C10.1718 10.3767 9.81981 10.6627 9.40181 10.868C8.99115 11.066 8.52915 11.165 8.01581 11.165ZM8.49981 7.414C8.82248 7.414 9.11215 7.34433 9.36881 7.205C9.63281 7.05833 9.83815 6.864 9.98481 6.622C10.1388 6.37267 10.2158 6.094 10.2158 5.786C10.2158 5.55133 10.1718 5.33133 10.0838 5.126C9.99581 4.91333 9.87481 4.73 9.72081 4.576C9.56681 4.41467 9.38348 4.29 9.17081 4.202C8.96548 4.114 8.74181 4.07 8.49981 4.07C8.26515 4.07 8.04515 4.114 7.83981 4.202C7.63448 4.29 7.45481 4.411 7.30081 4.565C7.14681 4.719 7.02581 4.89867 6.93781 5.104C6.84981 5.30933 6.80581 5.533 6.80581 5.775C6.80581 6.09033 6.87915 6.37267 7.02581 6.622C7.17248 6.864 7.37048 7.05833 7.61981 7.205C7.87648 7.34433 8.16981 7.414 8.49981 7.414ZM12.7359 11V3.19H13.6599V6.721L17.2459 3.19H18.4559L14.6719 6.875L18.8519 11H17.5209L13.6599 7.161V11H12.7359Z" fill="#9EA0A5"/>
<path d="M1.93659 50.54V49.088C1.37926 49.0293 0.895261 48.835 0.484594 48.505C0.0739271 48.175 -0.223073 47.735 -0.406406 47.185L0.407594 46.987C0.700927 47.7643 1.21059 48.208 1.93659 48.318V45.425H1.91459C1.20326 45.293 0.667927 45.051 0.308594 44.699C-0.0434062 44.347 -0.219406 43.9107 -0.219406 43.39C-0.219406 43.0087 -0.131406 42.6677 0.0445938 42.367C0.227927 42.0663 0.480927 41.8243 0.803594 41.641C1.13359 41.4503 1.51126 41.3403 1.93659 41.311V39.98H2.57459V41.322C3.10993 41.388 3.56459 41.5823 3.93859 41.905C4.31259 42.2203 4.57293 42.642 4.71959 43.17L3.91659 43.368C3.77726 42.994 3.59759 42.7043 3.37759 42.499C3.16493 42.2863 2.89726 42.1543 2.57459 42.103V44.699L2.76159 44.732C3.18693 44.8053 3.54993 44.9373 3.85059 45.128C4.15859 45.3187 4.39326 45.5607 4.55459 45.854C4.72326 46.14 4.80759 46.4737 4.80759 46.855C4.80759 47.2657 4.71226 47.6323 4.52159 47.955C4.33093 48.2777 4.06693 48.5417 3.72959 48.747C3.39959 48.945 3.01459 49.0623 2.57459 49.099V50.54H1.93659ZM0.638594 43.346C0.638594 43.6613 0.744927 43.918 0.957594 44.116C1.17026 44.314 1.49659 44.4643 1.93659 44.567V42.081C1.53326 42.125 1.21426 42.2607 0.979594 42.488C0.75226 42.7153 0.638594 43.0013 0.638594 43.346ZM3.96059 46.899C3.96059 46.5543 3.84326 46.2683 3.60859 46.041C3.37393 45.8137 3.02926 45.6487 2.57459 45.546V48.318C2.85326 48.2887 3.09526 48.2117 3.30059 48.087C3.51326 47.955 3.67459 47.79 3.78459 47.592C3.90193 47.3867 3.96059 47.1557 3.96059 46.899ZM8.81984 49.165C8.40184 49.165 8.02051 49.0807 7.67584 48.912C7.33118 48.736 7.03418 48.4903 6.78484 48.175C6.53551 47.8523 6.34118 47.4673 6.20184 47.02C6.06984 46.5653 6.00384 46.0557 6.00384 45.491C6.00384 44.875 6.08451 44.3103 6.24584 43.797C6.40718 43.2763 6.63451 42.8253 6.92784 42.444C7.22118 42.0627 7.57318 41.7693 7.98384 41.564C8.39451 41.3513 8.84918 41.245 9.34784 41.245C9.66318 41.245 9.96384 41.289 10.2498 41.377C10.5358 41.465 10.8035 41.597 11.0528 41.773L10.7118 42.499C10.5212 42.3597 10.3122 42.2533 10.0848 42.18C9.85751 42.1067 9.62284 42.07 9.38084 42.07C9.00684 42.07 8.66584 42.1543 8.35784 42.323C8.05718 42.4843 7.79318 42.7153 7.56584 43.016C7.34584 43.3167 7.17718 43.676 7.05984 44.094C6.94251 44.5047 6.88384 44.963 6.88384 45.469C7.04518 45.051 7.30551 44.7247 7.66484 44.49C8.02418 44.248 8.44951 44.127 8.94084 44.127C9.30018 44.127 9.63384 44.1893 9.94184 44.314C10.2498 44.4387 10.5175 44.6147 10.7448 44.842C10.9795 45.0693 11.1592 45.3333 11.2838 45.634C11.4085 45.9273 11.4708 46.25 11.4708 46.602C11.4708 46.9613 11.4048 47.295 11.2728 47.603C11.1408 47.911 10.9538 48.1823 10.7118 48.417C10.4698 48.6517 10.1875 48.835 9.86484 48.967C9.54218 49.099 9.19384 49.165 8.81984 49.165ZM8.85284 48.34C9.08751 48.34 9.30751 48.296 9.51284 48.208C9.71818 48.12 9.89784 47.999 10.0518 47.845C10.2058 47.6837 10.3268 47.4967 10.4148 47.284C10.5028 47.0713 10.5468 46.844 10.5468 46.602C10.5468 46.2793 10.4735 45.9933 10.3268 45.744C10.1802 45.4947 9.97851 45.3003 9.72184 45.161C9.47251 45.0143 9.18651 44.941 8.86384 44.941C8.53384 44.941 8.23684 45.0143 7.97284 45.161C7.71618 45.3003 7.51084 45.4947 7.35684 45.744C7.21018 45.9933 7.13684 46.272 7.13684 46.58C7.13684 46.822 7.18084 47.0493 7.26884 47.262C7.35684 47.4747 7.47784 47.6617 7.63184 47.823C7.78584 47.9843 7.96551 48.1127 8.17084 48.208C8.38351 48.296 8.61084 48.34 8.85284 48.34ZM12.7359 49V41.19H13.6599V44.721L17.2459 41.19H18.4559L14.6719 44.875L18.8519 49H17.5209L13.6599 45.161V49H12.7359Z" fill="#9EA0A5"/>
<path d="M9.25202 88.54V87.088C8.69469 87.0293 8.21069 86.835 7.80002 86.505C7.38936 86.175 7.09236 85.735 6.90902 85.185L7.72302 84.987C8.01636 85.7643 8.52602 86.208 9.25202 86.318V83.425H9.23002C8.51869 83.293 7.98336 83.051 7.62402 82.699C7.27202 82.347 7.09602 81.9107 7.09602 81.39C7.09602 81.0087 7.18402 80.6677 7.36002 80.367C7.54336 80.0663 7.79636 79.8243 8.11902 79.641C8.44902 79.4503 8.82669 79.3403 9.25202 79.311V77.98H9.89002V79.322C10.4254 79.388 10.88 79.5823 11.254 79.905C11.628 80.2203 11.8884 80.642 12.035 81.17L11.232 81.368C11.0927 80.994 10.913 80.7043 10.693 80.499C10.4804 80.2863 10.2127 80.1543 9.89002 80.103V82.699L10.077 82.732C10.5024 82.8053 10.8654 82.9373 11.166 83.128C11.474 83.3187 11.7087 83.5607 11.87 83.854C12.0387 84.14 12.123 84.4737 12.123 84.855C12.123 85.2657 12.0277 85.6323 11.837 85.955C11.6464 86.2777 11.3824 86.5417 11.045 86.747C10.715 86.945 10.33 87.0623 9.89002 87.099V88.54H9.25202ZM7.95402 81.346C7.95402 81.6613 8.06036 81.918 8.27302 82.116C8.48569 82.314 8.81202 82.4643 9.25202 82.567V80.081C8.84869 80.125 8.52969 80.2607 8.29502 80.488C8.06769 80.7153 7.95402 81.0013 7.95402 81.346ZM11.276 84.899C11.276 84.5543 11.1587 84.2683 10.924 84.041C10.6894 83.8137 10.3447 83.6487 9.89002 83.546V86.318C10.1687 86.2887 10.4107 86.2117 10.616 86.087C10.8287 85.955 10.99 85.79 11.1 85.592C11.2174 85.3867 11.276 85.1557 11.276 84.899ZM15.8378 87.165C15.4124 87.165 15.0201 87.0917 14.6608 86.945C14.3088 86.7983 14.0044 86.582 13.7478 86.296C13.4984 86.01 13.3151 85.6617 13.1978 85.251L14.0448 85.053C14.1841 85.4637 14.4078 85.7827 14.7158 86.01C15.0238 86.23 15.3904 86.34 15.8158 86.34C16.1384 86.34 16.4281 86.2777 16.6848 86.153C16.9414 86.0283 17.1431 85.856 17.2898 85.636C17.4364 85.416 17.5098 85.1667 17.5098 84.888C17.5098 84.5947 17.4364 84.3417 17.2898 84.129C17.1504 83.9163 16.9488 83.7513 16.6848 83.634C16.4281 83.5167 16.1238 83.458 15.7718 83.458H14.9468V82.633H15.7388C16.0688 82.633 16.3511 82.578 16.5858 82.468C16.8278 82.358 17.0148 82.204 17.1468 82.006C17.2788 81.8007 17.3448 81.566 17.3448 81.302C17.3448 81.06 17.2788 80.8473 17.1468 80.664C17.0221 80.4733 16.8498 80.3267 16.6298 80.224C16.4098 80.1213 16.1531 80.07 15.8598 80.07C15.4564 80.07 15.1081 80.18 14.8148 80.4C14.5288 80.6127 14.3234 80.9133 14.1988 81.302L13.3628 81.104C13.4581 80.7227 13.6231 80.3963 13.8578 80.125C14.0998 79.8463 14.3968 79.63 14.7488 79.476C15.1008 79.322 15.4858 79.245 15.9038 79.245C16.2411 79.245 16.5528 79.2963 16.8388 79.399C17.1321 79.4943 17.3851 79.6337 17.5978 79.817C17.8104 79.993 17.9754 80.2057 18.0928 80.455C18.2101 80.697 18.2688 80.9647 18.2688 81.258C18.2688 81.654 18.1698 82.0023 17.9718 82.303C17.7738 82.6037 17.4878 82.8383 17.1138 83.007C17.5244 83.1537 17.8471 83.392 18.0818 83.722C18.3164 84.052 18.4338 84.4443 18.4338 84.899C18.4338 85.2143 18.3678 85.5113 18.2358 85.79C18.1038 86.0613 17.9204 86.3033 17.6858 86.516C17.4511 86.7213 17.1761 86.8827 16.8608 87C16.5454 87.11 16.2044 87.165 15.8378 87.165ZM12.7359 102V94.19H13.6599V97.721L17.2459 94.19H18.4559L14.6719 97.875L18.8519 102H17.5209L13.6599 98.161V102H12.7359Z" fill="#9EA0A5"/>
</g>
<defs>
<clipPath id="clip0_6_304">
<rect width="24" height="89" fill="white"/>
</clipPath>
</defs>
</svg>
