<svg width="514" height="142" viewBox="0 0 514 142" fill="none" xmlns="http://www.w3.org/2000/svg">
<g clip-path="url(#clip0_48_4)">
<path fill-rule="evenodd" clip-rule="evenodd" d="M2 0H510.689V0.759237H2V0Z" fill="#EAEDF3"/>
<path fill-rule="evenodd" clip-rule="evenodd" d="M2 37.2026H510.689V37.9619H2V37.2026Z" fill="#EAEDF3"/>
<path fill-rule="evenodd" clip-rule="evenodd" d="M2 74.4053H510.689V75.1645H2V74.4053Z" fill="#EAEDF3"/>
<path fill-rule="evenodd" clip-rule="evenodd" d="M2 111.607H510.689V112.367H2V111.607Z" fill="#EAEDF3"/>
</g>
<g clip-path="url(#clip1_48_4)">
<path opacity="0.101741" fill-rule="evenodd" clip-rule="evenodd" d="M6.16577 29.9625L84.4937 67.1652L162.822 51.9804L241.15 14.0186L319.478 36.7957L397.806 83.1091L476.134 61.0913V112.719H6.16577V29.9625Z" fill="#348373"/>
<path d="M6.16577 29.9232L84.4937 67.049L162.822 51.8956L241.15 14.0122L319.478 36.7423L397.806 82.9601L476.134 60.9877" stroke="#348373" stroke-width="1.51847" stroke-linecap="round" stroke-linejoin="round"/>
<g clip-path="url(#clip2_48_4)">
<g clip-path="url(#clip3_48_4)">
<path d="M475.754 64.0309C477.641 64.0309 479.171 62.5013 479.171 60.6144C479.171 58.7274 477.641 57.1978 475.754 57.1978C473.867 57.1978 472.337 58.7274 472.337 60.6144C472.337 62.5013 473.867 64.0309 475.754 64.0309Z" fill="#348373" stroke="white" stroke-width="1.51847"/>
<path d="M470.683 135.679C469.95 135.468 469.416 135.21 469.081 134.905C468.749 134.596 468.583 134.217 468.583 133.766C468.583 133.256 468.786 132.835 469.192 132.502C469.601 132.167 470.132 132 470.785 132C471.23 132 471.626 132.086 471.973 132.258C472.323 132.43 472.592 132.667 472.782 132.97C472.975 133.272 473.071 133.603 473.071 133.962H472.213C472.213 133.57 472.088 133.263 471.839 133.041C471.59 132.815 471.239 132.703 470.785 132.703C470.364 132.703 470.034 132.796 469.797 132.983C469.563 133.167 469.446 133.423 469.446 133.752C469.446 134.016 469.557 134.24 469.779 134.424C470.005 134.605 470.386 134.771 470.923 134.922C471.463 135.074 471.884 135.241 472.186 135.425C472.492 135.606 472.717 135.818 472.862 136.061C473.011 136.305 473.085 136.591 473.085 136.92C473.085 137.445 472.88 137.866 472.471 138.183C472.062 138.498 471.514 138.655 470.829 138.655C470.384 138.655 469.969 138.57 469.584 138.401C469.198 138.229 468.9 137.995 468.69 137.698C468.482 137.402 468.378 137.065 468.378 136.689H469.237C469.237 137.08 469.381 137.39 469.668 137.618C469.959 137.844 470.346 137.956 470.829 137.956C471.28 137.956 471.626 137.865 471.866 137.681C472.106 137.497 472.226 137.246 472.226 136.929C472.226 136.611 472.115 136.367 471.893 136.195C471.67 136.02 471.267 135.848 470.683 135.679ZM477.026 138.09C476.706 138.467 476.236 138.655 475.616 138.655C475.103 138.655 474.712 138.507 474.442 138.21C474.175 137.91 474.04 137.469 474.037 136.884V133.752H474.86V136.862C474.86 137.592 475.156 137.956 475.75 137.956C476.378 137.956 476.796 137.722 477.004 137.254V133.752H477.827V138.566H477.044L477.026 138.09ZM479.86 133.752L479.887 134.357C480.255 133.895 480.735 133.663 481.328 133.663C482.345 133.663 482.858 134.237 482.867 135.385V138.566H482.044V135.381C482.041 135.034 481.961 134.777 481.804 134.611C481.65 134.445 481.408 134.362 481.079 134.362C480.812 134.362 480.578 134.433 480.376 134.575C480.174 134.718 480.017 134.905 479.905 135.136V138.566H479.082V133.752H479.86Z" fill="#9EA0A5"/>
</g>
<g clip-path="url(#clip4_48_4)">
<path d="M397.552 84.2458C399.439 84.2458 400.969 82.7161 400.969 80.8292C400.969 78.9423 399.439 77.4126 397.552 77.4126C395.666 77.4126 394.136 78.9423 394.136 80.8292C394.136 82.7161 395.666 84.2458 397.552 84.2458Z" fill="#348373" stroke="white" stroke-width="1.51847"/>
<path d="M393.16 134.635C392.428 134.424 391.894 134.166 391.559 133.861C391.226 133.552 391.06 133.173 391.06 132.722C391.06 132.212 391.264 131.791 391.67 131.458C392.079 131.123 392.61 130.956 393.262 130.956C393.707 130.956 394.103 131.042 394.45 131.214C394.8 131.386 395.07 131.623 395.26 131.926C395.453 132.228 395.549 132.559 395.549 132.918H394.691C394.691 132.526 394.566 132.219 394.317 131.997C394.068 131.771 393.716 131.659 393.262 131.659C392.841 131.659 392.512 131.752 392.275 131.939C392.041 132.123 391.923 132.379 391.923 132.709C391.923 132.972 392.035 133.196 392.257 133.38C392.482 133.561 392.864 133.727 393.4 133.879C393.94 134.03 394.361 134.197 394.664 134.381C394.969 134.562 395.195 134.774 395.34 135.017C395.488 135.261 395.562 135.547 395.562 135.876C395.562 136.401 395.358 136.822 394.949 137.139C394.539 137.454 393.992 137.611 393.307 137.611C392.862 137.611 392.447 137.526 392.061 137.357C391.676 137.185 391.378 136.951 391.167 136.654C390.96 136.358 390.856 136.021 390.856 135.645H391.714C391.714 136.036 391.858 136.346 392.146 136.574C392.437 136.8 392.824 136.913 393.307 136.913C393.758 136.913 394.103 136.821 394.344 136.637C394.584 136.453 394.704 136.202 394.704 135.885C394.704 135.568 394.593 135.323 394.37 135.151C394.148 134.976 393.744 134.804 393.16 134.635ZM399.504 137.522C399.456 137.427 399.418 137.258 399.388 137.015C399.006 137.412 398.549 137.611 398.018 137.611C397.544 137.611 397.154 137.477 396.848 137.211C396.546 136.941 396.394 136.6 396.394 136.187C396.394 135.686 396.584 135.298 396.964 135.022C397.346 134.743 397.883 134.604 398.574 134.604H399.375V134.226C399.375 133.938 399.289 133.709 399.117 133.54C398.945 133.368 398.691 133.282 398.356 133.282C398.063 133.282 397.816 133.357 397.618 133.505C397.419 133.653 397.32 133.833 397.32 134.043H396.492C396.492 133.803 396.577 133.572 396.746 133.349C396.918 133.124 397.149 132.946 397.44 132.815C397.733 132.685 398.055 132.62 398.405 132.62C398.96 132.62 399.394 132.759 399.709 133.038C400.023 133.314 400.186 133.695 400.198 134.181V136.396C400.198 136.838 400.254 137.19 400.367 137.451V137.522H399.504ZM398.138 136.895C398.396 136.895 398.641 136.828 398.872 136.695C399.104 136.561 399.271 136.388 399.375 136.174V135.186H398.73C397.722 135.186 397.217 135.482 397.217 136.072C397.217 136.33 397.303 136.531 397.475 136.677C397.647 136.822 397.868 136.895 398.138 136.895ZM402.605 131.543V132.709H403.503V133.345H402.605V136.33C402.605 136.523 402.645 136.668 402.725 136.766C402.805 136.861 402.941 136.908 403.134 136.908C403.229 136.908 403.359 136.89 403.526 136.855V137.522C403.309 137.581 403.098 137.611 402.894 137.611C402.526 137.611 402.249 137.5 402.062 137.277C401.875 137.055 401.782 136.739 401.782 136.33V133.345H400.905V132.709H401.782V131.543H402.605Z" fill="#9EA0A5"/>
</g>
<g clip-path="url(#clip5_48_4)">
<path d="M319.351 39.7858C321.238 39.7858 322.768 38.2562 322.768 36.3692C322.768 34.4823 321.238 32.9527 319.351 32.9527C317.464 32.9527 315.934 34.4823 315.934 36.3692C315.934 38.2562 317.464 39.7858 319.351 39.7858Z" fill="#348373" stroke="white" stroke-width="1.51847"/>
<path d="M316.665 135.756H313.947V138.616H313.093V132.139H317.106V132.842H313.947V135.057H316.665V135.756ZM320.211 134.541C320.086 134.52 319.952 134.51 319.806 134.51C319.266 134.51 318.9 134.74 318.707 135.2V138.616H317.884V133.803H318.685L318.698 134.359C318.968 133.929 319.351 133.714 319.846 133.714C320.006 133.714 320.128 133.735 320.211 133.776V134.541ZM321.866 138.616H321.043V133.803H321.866V138.616ZM320.976 132.526C320.976 132.393 321.016 132.28 321.096 132.188C321.179 132.096 321.301 132.05 321.461 132.05C321.621 132.05 321.743 132.096 321.826 132.188C321.909 132.28 321.95 132.393 321.95 132.526C321.95 132.659 321.909 132.771 321.826 132.86C321.743 132.949 321.621 132.993 321.461 132.993C321.301 132.993 321.179 132.949 321.096 132.86C321.016 132.771 320.976 132.659 320.976 132.526Z" fill="#9EA0A5"/>
</g>
<g clip-path="url(#clip6_48_4)">
<path d="M241.15 17.0553C243.037 17.0553 244.566 15.5257 244.566 13.6388C244.566 11.7519 243.037 10.2222 241.15 10.2222C239.263 10.2222 237.733 11.7519 237.733 13.6388C237.733 15.5257 239.263 17.0553 241.15 17.0553Z" fill="#348373" stroke="white" stroke-width="1.51847"/>
<path d="M238.636 132.889H236.554V138.663H235.704V132.889H233.627V132.186H238.636V132.889ZM240.291 134.432C240.656 133.985 241.13 133.761 241.715 133.761C242.732 133.761 243.245 134.335 243.254 135.482V138.663H242.431V135.478C242.428 135.131 242.348 134.874 242.191 134.708C242.036 134.542 241.795 134.459 241.465 134.459C241.199 134.459 240.964 134.53 240.763 134.673C240.561 134.815 240.404 135.002 240.291 135.233V138.663H239.468V131.83H240.291V134.432ZM247.458 138.187C247.137 138.564 246.667 138.752 246.048 138.752C245.534 138.752 245.143 138.604 244.873 138.307C244.606 138.008 244.471 137.566 244.468 136.981V133.85H245.291V136.959C245.291 137.689 245.588 138.054 246.181 138.054C246.81 138.054 247.228 137.819 247.436 137.351V133.85H248.259V138.663H247.476L247.458 138.187Z" fill="#9EA0A5"/>
</g>
<g clip-path="url(#clip7_48_4)">
<path d="M162.948 54.9391C164.835 54.9391 166.365 53.4095 166.365 51.5226C166.365 49.6356 164.835 48.106 162.948 48.106C161.061 48.106 159.532 49.6356 159.532 51.5226C159.532 53.4095 161.061 54.9391 162.948 54.9391Z" fill="#348373" stroke="white" stroke-width="1.51847"/>
<path d="M155.758 136.543L155.882 137.397L156.065 136.628L157.346 132.108H158.066L159.317 136.628L159.494 137.411L159.632 136.539L160.638 132.108H161.496L159.926 138.585H159.147L157.813 133.865L157.711 133.371L157.608 133.865L156.225 138.585H155.446L153.88 132.108H154.734L155.758 136.543ZM164.174 138.674C163.522 138.674 162.991 138.46 162.582 138.033C162.173 137.603 161.968 137.029 161.968 136.312V136.16C161.968 135.683 162.058 135.257 162.239 134.884C162.423 134.507 162.678 134.213 163.004 134.003C163.334 133.789 163.69 133.683 164.072 133.683C164.698 133.683 165.184 133.889 165.531 134.301C165.878 134.713 166.052 135.303 166.052 136.071V136.414H162.791C162.803 136.889 162.941 137.273 163.205 137.566C163.472 137.857 163.81 138.002 164.219 138.002C164.51 138.002 164.756 137.943 164.957 137.824C165.159 137.706 165.336 137.548 165.487 137.353L165.99 137.744C165.586 138.364 164.981 138.674 164.174 138.674ZM164.072 134.359C163.74 134.359 163.461 134.48 163.236 134.724C163.01 134.964 162.871 135.302 162.818 135.738H165.229V135.676C165.205 135.257 165.092 134.934 164.891 134.706C164.689 134.474 164.416 134.359 164.072 134.359ZM166.808 136.138C166.808 135.4 166.983 134.807 167.333 134.359C167.683 133.908 168.141 133.683 168.708 133.683C169.271 133.683 169.717 133.875 170.047 134.261V131.752H170.87V138.585H170.113L170.073 138.069C169.744 138.472 169.286 138.674 168.699 138.674C168.141 138.674 167.686 138.446 167.333 137.989C166.983 137.532 166.808 136.936 166.808 136.2V136.138ZM167.631 136.232C167.631 136.777 167.744 137.204 167.969 137.513C168.195 137.821 168.506 137.975 168.903 137.975C169.425 137.975 169.806 137.741 170.047 137.273V135.062C169.801 134.608 169.422 134.381 168.912 134.381C168.509 134.381 168.195 134.537 167.969 134.848C167.744 135.159 167.631 135.621 167.631 136.232Z" fill="#9EA0A5"/>
</g>
<g clip-path="url(#clip8_48_4)">
<path d="M84.7467 70.0925C86.6336 70.0925 88.1633 68.5628 88.1633 66.6759C88.1633 64.789 86.6336 63.2593 84.7467 63.2593C82.8598 63.2593 81.3301 64.789 81.3301 66.6759C81.3301 68.5628 82.8598 70.0925 84.7467 70.0925Z" fill="#348373" stroke="white" stroke-width="1.51847"/>
<path d="M81.4013 132.779H79.3194V138.553H78.4697V132.779H76.3922V132.076H81.4013V132.779ZM84.7779 138.077C84.4576 138.454 83.9875 138.642 83.3676 138.642C82.8546 138.642 82.4631 138.494 82.1932 138.197C81.9263 137.898 81.7913 137.456 81.7884 136.872V133.74H82.6114V136.849C82.6114 137.579 82.908 137.944 83.5011 137.944C84.1299 137.944 84.548 137.709 84.7556 137.241V133.74H85.5786V138.553H84.7957L84.7779 138.077ZM88.8306 138.642C88.1781 138.642 87.6473 138.429 87.238 138.002C86.8287 137.572 86.6241 136.998 86.6241 136.28V136.129C86.6241 135.651 86.7145 135.226 86.8954 134.852C87.0793 134.475 87.3344 134.182 87.6606 133.971C87.9898 133.758 88.3457 133.651 88.7283 133.651C89.3541 133.651 89.8404 133.857 90.1874 134.269C90.5344 134.681 90.7079 135.272 90.7079 136.04V136.382H87.4471C87.4589 136.857 87.5968 137.241 87.8608 137.534C88.1277 137.825 88.4658 137.97 88.8751 137.97C89.1657 137.97 89.4119 137.911 89.6136 137.793C89.8152 137.674 89.9917 137.517 90.143 137.321L90.6456 137.712C90.2423 138.332 89.6373 138.642 88.8306 138.642ZM88.7283 134.327C88.3961 134.327 88.1173 134.449 87.8919 134.692C87.6665 134.932 87.5271 135.27 87.4738 135.706H89.8849V135.644C89.8612 135.226 89.7485 134.902 89.5468 134.674C89.3452 134.443 89.0723 134.327 88.7283 134.327Z" fill="#9EA0A5"/>
</g>
<g clip-path="url(#clip9_48_4)">
<path d="M6.54539 32.9665C8.43231 32.9665 9.96196 31.4368 9.96196 29.5499C9.96196 27.663 8.43231 26.1333 6.54539 26.1333C4.65847 26.1333 3.12882 27.663 3.12882 29.5499C3.12882 31.4368 4.65847 32.9665 6.54539 32.9665Z" fill="#348373" stroke="white" stroke-width="1.51847"/>
<path d="M1.93226 132.153L4.04982 137.438L6.16739 132.153H7.2751V138.63H6.42096V136.107L6.50103 133.385L4.37458 138.63H3.72062L1.59862 133.398L1.68314 136.107V138.63H0.828998V132.153H1.93226ZM8.4362 136.179C8.4362 135.707 8.52814 135.283 8.71202 134.906C8.89886 134.53 9.15688 134.239 9.48608 134.034C9.81825 133.83 10.1964 133.727 10.6205 133.727C11.2759 133.727 11.8053 133.954 12.2087 134.408C12.615 134.862 12.8181 135.465 12.8181 136.219V136.277C12.8181 136.745 12.7277 137.166 12.5468 137.54C12.3688 137.911 12.1123 138.2 11.7771 138.407C11.445 138.615 11.0624 138.719 10.6294 138.719C9.97692 138.719 9.44753 138.492 9.04122 138.038C8.63787 137.584 8.4362 136.984 8.4362 136.237V136.179ZM9.26365 136.277C9.26365 136.81 9.38673 137.239 9.63289 137.562C9.88201 137.885 10.2142 138.047 10.6294 138.047C11.0476 138.047 11.3797 137.884 11.6259 137.558C11.872 137.229 11.9951 136.769 11.9951 136.179C11.9951 135.651 11.8691 135.224 11.617 134.897C11.3679 134.568 11.0357 134.404 10.6205 134.404C10.2142 134.404 9.88646 134.565 9.63734 134.889C9.38821 135.212 9.26365 135.674 9.26365 136.277ZM14.6287 133.816L14.6554 134.421C15.0232 133.959 15.5036 133.727 16.0968 133.727C17.114 133.727 17.6271 134.301 17.636 135.449V138.63H16.813V135.445C16.8101 135.098 16.73 134.841 16.5728 134.675C16.4186 134.509 16.1769 134.426 15.8477 134.426C15.5807 134.426 15.3464 134.497 15.1448 134.639C14.9431 134.782 14.7859 134.969 14.6732 135.2V138.63H13.8502V133.816H14.6287Z" fill="#9EA0A5"/>
</g>
</g>
</g>
<g clip-path="url(#clip10_48_4)">
<path d="M491.958 18.54V17.088C491.401 17.0293 490.917 16.835 490.506 16.505C490.095 16.175 489.798 15.735 489.615 15.185L490.429 14.987C490.722 15.7643 491.232 16.208 491.958 16.318V13.425H491.936C491.225 13.293 490.689 13.051 490.33 12.699C489.978 12.347 489.802 11.9107 489.802 11.39C489.802 11.0087 489.89 10.6677 490.066 10.367C490.249 10.0663 490.502 9.82433 490.825 9.641C491.155 9.45033 491.533 9.34033 491.958 9.311V7.98H492.596V9.322C493.131 9.388 493.586 9.58233 493.96 9.905C494.334 10.2203 494.594 10.642 494.741 11.17L493.938 11.368C493.799 10.994 493.619 10.7043 493.399 10.499C493.186 10.2863 492.919 10.1543 492.596 10.103V12.699L492.783 12.732C493.208 12.8053 493.571 12.9373 493.872 13.128C494.18 13.3187 494.415 13.5607 494.576 13.854C494.745 14.14 494.829 14.4737 494.829 14.855C494.829 15.2657 494.734 15.6323 494.543 15.955C494.352 16.2777 494.088 16.5417 493.751 16.747C493.421 16.945 493.036 17.0623 492.596 17.099V18.54H491.958ZM490.66 11.346C490.66 11.6613 490.766 11.918 490.979 12.116C491.192 12.314 491.518 12.4643 491.958 12.567V10.081C491.555 10.125 491.236 10.2607 491.001 10.488C490.774 10.7153 490.66 11.0013 490.66 11.346ZM493.982 14.899C493.982 14.5543 493.865 14.2683 493.63 14.041C493.395 13.8137 493.051 13.6487 492.596 13.546V16.318C492.875 16.2887 493.117 16.2117 493.322 16.087C493.535 15.955 493.696 15.79 493.806 15.592C493.923 15.3867 493.982 15.1557 493.982 14.899ZM498.016 17.165C497.356 17.165 496.776 16.989 496.278 16.637L496.619 15.911C497.007 16.197 497.462 16.34 497.983 16.34C498.503 16.34 498.951 16.208 499.325 15.944C499.699 15.6727 499.981 15.2913 500.172 14.8C500.37 14.3013 500.469 13.711 500.469 13.029V12.919C500.307 13.3297 500.047 13.6523 499.688 13.887C499.328 14.1143 498.907 14.228 498.423 14.228C498.056 14.228 497.719 14.1657 497.411 14.041C497.103 13.9163 496.831 13.744 496.597 13.524C496.369 13.304 496.193 13.0473 496.069 12.754C495.944 12.4533 495.882 12.1307 495.882 11.786C495.882 11.434 495.948 11.104 496.08 10.796C496.212 10.488 496.399 10.2203 496.641 9.993C496.883 9.75833 497.165 9.575 497.488 9.443C497.81 9.311 498.159 9.245 498.533 9.245C498.951 9.245 499.332 9.333 499.677 9.509C500.021 9.685 500.318 9.938 500.568 10.268C500.817 10.598 501.008 10.9977 501.14 11.467C501.279 11.929 501.349 12.4497 501.349 13.029C501.349 13.6377 501.272 14.195 501.118 14.701C500.964 15.207 500.744 15.6433 500.458 16.01C500.172 16.3767 499.82 16.6627 499.402 16.868C498.991 17.066 498.529 17.165 498.016 17.165ZM498.5 13.414C498.822 13.414 499.112 13.3443 499.369 13.205C499.633 13.0583 499.838 12.864 499.985 12.622C500.139 12.3727 500.216 12.094 500.216 11.786C500.216 11.5513 500.172 11.3313 500.084 11.126C499.996 10.9133 499.875 10.73 499.721 10.576C499.567 10.4147 499.383 10.29 499.171 10.202C498.965 10.114 498.742 10.07 498.5 10.07C498.265 10.07 498.045 10.114 497.84 10.202C497.634 10.29 497.455 10.411 497.301 10.565C497.147 10.719 497.026 10.8987 496.938 11.104C496.85 11.3093 496.806 11.533 496.806 11.775C496.806 12.0903 496.879 12.3727 497.026 12.622C497.172 12.864 497.37 13.0583 497.62 13.205C497.876 13.3443 498.17 13.414 498.5 13.414ZM502.736 17V9.19H503.66V12.721L507.246 9.19H508.456L504.672 12.875L508.852 17H507.521L503.66 13.161V17H502.736Z" fill="#9EA0A5"/>
<path d="M491.937 56.54V55.088C491.379 55.0293 490.895 54.835 490.485 54.505C490.074 54.175 489.777 53.735 489.594 53.185L490.408 52.987C490.701 53.7643 491.211 54.208 491.937 54.318V51.425H491.915C491.203 51.293 490.668 51.051 490.309 50.699C489.957 50.347 489.781 49.9107 489.781 49.39C489.781 49.0087 489.869 48.6677 490.045 48.367C490.228 48.0663 490.481 47.8243 490.804 47.641C491.134 47.4503 491.511 47.3403 491.937 47.311V45.98H492.575V47.322C493.11 47.388 493.565 47.5823 493.939 47.905C494.313 48.2203 494.573 48.642 494.72 49.17L493.917 49.368C493.777 48.994 493.598 48.7043 493.378 48.499C493.165 48.2863 492.897 48.1543 492.575 48.103V50.699L492.762 50.732C493.187 50.8053 493.55 50.9373 493.851 51.128C494.159 51.3187 494.393 51.5607 494.555 51.854C494.723 52.14 494.808 52.4737 494.808 52.855C494.808 53.2657 494.712 53.6323 494.522 53.955C494.331 54.2777 494.067 54.5417 493.73 54.747C493.4 54.945 493.015 55.0623 492.575 55.099V56.54H491.937ZM490.639 49.346C490.639 49.6613 490.745 49.918 490.958 50.116C491.17 50.314 491.497 50.4643 491.937 50.567V48.081C491.533 48.125 491.214 48.2607 490.98 48.488C490.752 48.7153 490.639 49.0013 490.639 49.346ZM493.961 52.899C493.961 52.5543 493.843 52.2683 493.609 52.041C493.374 51.8137 493.029 51.6487 492.575 51.546V54.318C492.853 54.2887 493.095 54.2117 493.301 54.087C493.513 53.955 493.675 53.79 493.785 53.592C493.902 53.3867 493.961 53.1557 493.961 52.899ZM498.82 55.165C498.402 55.165 498.021 55.0807 497.676 54.912C497.331 54.736 497.034 54.4903 496.785 54.175C496.536 53.8523 496.341 53.4673 496.202 53.02C496.07 52.5653 496.004 52.0557 496.004 51.491C496.004 50.875 496.085 50.3103 496.246 49.797C496.407 49.2763 496.635 48.8253 496.928 48.444C497.221 48.0627 497.573 47.7693 497.984 47.564C498.395 47.3513 498.849 47.245 499.348 47.245C499.663 47.245 499.964 47.289 500.25 47.377C500.536 47.465 500.804 47.597 501.053 47.773L500.712 48.499C500.521 48.3597 500.312 48.2533 500.085 48.18C499.858 48.1067 499.623 48.07 499.381 48.07C499.007 48.07 498.666 48.1543 498.358 48.323C498.057 48.4843 497.793 48.7153 497.566 49.016C497.346 49.3167 497.177 49.676 497.06 50.094C496.943 50.5047 496.884 50.963 496.884 51.469C497.045 51.051 497.306 50.7247 497.665 50.49C498.024 50.248 498.45 50.127 498.941 50.127C499.3 50.127 499.634 50.1893 499.942 50.314C500.25 50.4387 500.518 50.6147 500.745 50.842C500.98 51.0693 501.159 51.3333 501.284 51.634C501.409 51.9273 501.471 52.25 501.471 52.602C501.471 52.9613 501.405 53.295 501.273 53.603C501.141 53.911 500.954 54.1823 500.712 54.417C500.47 54.6517 500.188 54.835 499.865 54.967C499.542 55.099 499.194 55.165 498.82 55.165ZM498.853 54.34C499.088 54.34 499.308 54.296 499.513 54.208C499.718 54.12 499.898 53.999 500.052 53.845C500.206 53.6837 500.327 53.4967 500.415 53.284C500.503 53.0713 500.547 52.844 500.547 52.602C500.547 52.2793 500.474 51.9933 500.327 51.744C500.18 51.4947 499.979 51.3003 499.722 51.161C499.473 51.0143 499.187 50.941 498.864 50.941C498.534 50.941 498.237 51.0143 497.973 51.161C497.716 51.3003 497.511 51.4947 497.357 51.744C497.21 51.9933 497.137 52.272 497.137 52.58C497.137 52.822 497.181 53.0493 497.269 53.262C497.357 53.4747 497.478 53.6617 497.632 53.823C497.786 53.9843 497.966 54.1127 498.171 54.208C498.384 54.296 498.611 54.34 498.853 54.34ZM502.736 55V47.19H503.66V50.721L507.246 47.19H508.456L504.672 50.875L508.852 55H507.521L503.66 51.161V55H502.736Z" fill="#9EA0A5"/>
<path d="M499.252 94.54V93.088C498.695 93.0293 498.211 92.835 497.8 92.505C497.389 92.175 497.092 91.735 496.909 91.185L497.723 90.987C498.016 91.7643 498.526 92.208 499.252 92.318V89.425H499.23C498.519 89.293 497.983 89.051 497.624 88.699C497.272 88.347 497.096 87.9107 497.096 87.39C497.096 87.0087 497.184 86.6677 497.36 86.367C497.543 86.0663 497.796 85.8243 498.119 85.641C498.449 85.4503 498.827 85.3403 499.252 85.311V83.98H499.89V85.322C500.425 85.388 500.88 85.5823 501.254 85.905C501.628 86.2203 501.888 86.642 502.035 87.17L501.232 87.368C501.093 86.994 500.913 86.7043 500.693 86.499C500.48 86.2863 500.213 86.1543 499.89 86.103V88.699L500.077 88.732C500.502 88.8053 500.865 88.9373 501.166 89.128C501.474 89.3187 501.709 89.5607 501.87 89.854C502.039 90.14 502.123 90.4737 502.123 90.855C502.123 91.2657 502.028 91.6323 501.837 91.955C501.646 92.2777 501.382 92.5417 501.045 92.747C500.715 92.945 500.33 93.0623 499.89 93.099V94.54H499.252ZM497.954 87.346C497.954 87.6613 498.06 87.918 498.273 88.116C498.486 88.314 498.812 88.4643 499.252 88.567V86.081C498.849 86.125 498.53 86.2607 498.295 86.488C498.068 86.7153 497.954 87.0013 497.954 87.346ZM501.276 90.899C501.276 90.5543 501.159 90.2683 500.924 90.041C500.689 89.8137 500.345 89.6487 499.89 89.546V92.318C500.169 92.2887 500.411 92.2117 500.616 92.087C500.829 91.955 500.99 91.79 501.1 91.592C501.217 91.3867 501.276 91.1557 501.276 90.899ZM505.838 93.165C505.412 93.165 505.02 93.0917 504.661 92.945C504.309 92.7983 504.004 92.582 503.748 92.296C503.498 92.01 503.315 91.6617 503.198 91.251L504.045 91.053C504.184 91.4637 504.408 91.7827 504.716 92.01C505.024 92.23 505.39 92.34 505.816 92.34C506.138 92.34 506.428 92.2777 506.685 92.153C506.941 92.0283 507.143 91.856 507.29 91.636C507.436 91.416 507.51 91.1667 507.51 90.888C507.51 90.5947 507.436 90.3417 507.29 90.129C507.15 89.9163 506.949 89.7513 506.685 89.634C506.428 89.5167 506.124 89.458 505.772 89.458H504.947V88.633H505.739C506.069 88.633 506.351 88.578 506.586 88.468C506.828 88.358 507.015 88.204 507.147 88.006C507.279 87.8007 507.345 87.566 507.345 87.302C507.345 87.06 507.279 86.8473 507.147 86.664C507.022 86.4733 506.85 86.3267 506.63 86.224C506.41 86.1213 506.153 86.07 505.86 86.07C505.456 86.07 505.108 86.18 504.815 86.4C504.529 86.6127 504.323 86.9133 504.199 87.302L503.363 87.104C503.458 86.7227 503.623 86.3963 503.858 86.125C504.1 85.8463 504.397 85.63 504.749 85.476C505.101 85.322 505.486 85.245 505.904 85.245C506.241 85.245 506.553 85.2963 506.839 85.399C507.132 85.4943 507.385 85.6337 507.598 85.817C507.81 85.993 507.975 86.2057 508.093 86.455C508.21 86.697 508.269 86.9647 508.269 87.258C508.269 87.654 508.17 88.0023 507.972 88.303C507.774 88.6037 507.488 88.8383 507.114 89.007C507.524 89.1537 507.847 89.392 508.082 89.722C508.316 90.052 508.434 90.4443 508.434 90.899C508.434 91.2143 508.368 91.5113 508.236 91.79C508.104 92.0613 507.92 92.3033 507.686 92.516C507.451 92.7213 507.176 92.8827 506.861 93C506.545 93.11 506.204 93.165 505.838 93.165ZM502.736 108V100.19H503.66V103.721L507.246 100.19H508.456L504.672 103.875L508.852 108H507.521L503.66 104.161V108H502.736Z" fill="#9EA0A5"/>
</g>
<defs>
<clipPath id="clip0_48_4">
<rect width="508.689" height="112.367" fill="white" transform="translate(2)"/>
</clipPath>
<clipPath id="clip1_48_4">
<rect width="490" height="131" fill="white" transform="translate(0 11)"/>
</clipPath>
<clipPath id="clip2_48_4">
<rect width="486.671" height="131.077" fill="white" transform="translate(-2.94519 10.9814)"/>
</clipPath>
<clipPath id="clip3_48_4">
<rect width="15.944" height="84.1012" fill="white" transform="translate(467.782 57.957)"/>
</clipPath>
<clipPath id="clip4_48_4">
<rect width="13.6663" height="62.8865" fill="white" transform="translate(390.34 79.1719)"/>
</clipPath>
<clipPath id="clip5_48_4">
<rect width="10.6293" height="108.347" fill="white" transform="translate(312.138 33.7119)"/>
</clipPath>
<clipPath id="clip6_48_4">
<rect width="15.944" height="131.077" fill="white" transform="translate(233.178 10.9814)"/>
</clipPath>
<clipPath id="clip7_48_4">
<rect width="18.2217" height="93.1932" fill="white" transform="translate(153.458 48.8652)"/>
</clipPath>
<clipPath id="clip8_48_4">
<rect width="15.1847" height="78.0399" fill="white" transform="translate(76.0155 64.0186)"/>
</clipPath>
<clipPath id="clip9_48_4">
<rect width="21" height="115" fill="white" transform="translate(0 27)"/>
</clipPath>
<clipPath id="clip10_48_4">
<rect width="24" height="89" fill="white" transform="translate(490 6)"/>
</clipPath>
</defs>
</svg>
