<svg width="36" height="36" viewBox="0 0 36 36" fill="none" xmlns="http://www.w3.org/2000/svg">
<rect width="36" height="36" rx="3.2" fill="#FACF55"/>
<path fill-rule="evenodd" clip-rule="evenodd" d="M23.2499 24.4H12.7504C12.1853 24.4 11.768 23.8424 11.9812 23.3296C12.9701 20.9584 15.2935 19.6 17.9998 19.6C20.7069 19.6 23.0303 20.9584 24.0192 23.3296C24.2324 23.8424 23.8151 24.4 23.2499 24.4ZM14.7333 14.8001C14.7333 13.0353 16.1992 11.6001 17.9999 11.6001C19.8014 11.6001 21.2664 13.0353 21.2664 14.8001C21.2664 16.5649 19.8014 18.0001 17.9999 18.0001C16.1992 18.0001 14.7333 16.5649 14.7333 14.8001ZM25.9645 24.1088C25.3708 21.4216 23.5138 19.4384 21.0696 18.5384C22.3648 17.5168 23.1202 15.8648 22.8425 14.056C22.5208 11.9576 20.7389 10.2784 18.5879 10.0336C15.6186 9.69518 13.1001 11.9592 13.1001 14.8C13.1001 16.312 13.8154 17.6592 14.931 18.5384C12.4859 19.4384 10.6297 21.4216 10.0352 24.1088C9.81963 25.0856 10.6232 26 11.6432 26H24.3566C25.3774 26 26.181 25.0856 25.9645 24.1088Z" fill="white" fill-opacity="0.01"/>
<mask id="mask0_6_374" style="mask-type:alpha" maskUnits="userSpaceOnUse" x="10" y="10" width="16" height="16">
<path fill-rule="evenodd" clip-rule="evenodd" d="M23.2499 24.4H12.7504C12.1853 24.4 11.768 23.8424 11.9812 23.3296C12.9701 20.9584 15.2935 19.6 17.9998 19.6C20.7069 19.6 23.0303 20.9584 24.0192 23.3296C24.2324 23.8424 23.8151 24.4 23.2499 24.4ZM14.7333 14.8001C14.7333 13.0353 16.1992 11.6001 17.9999 11.6001C19.8014 11.6001 21.2664 13.0353 21.2664 14.8001C21.2664 16.5649 19.8014 18.0001 17.9999 18.0001C16.1992 18.0001 14.7333 16.5649 14.7333 14.8001ZM25.9645 24.1088C25.3708 21.4216 23.5138 19.4384 21.0696 18.5384C22.3648 17.5168 23.1202 15.8648 22.8425 14.056C22.5208 11.9576 20.7389 10.2784 18.5879 10.0336C15.6186 9.69518 13.1001 11.9592 13.1001 14.8C13.1001 16.312 13.8154 17.6592 14.931 18.5384C12.4859 19.4384 10.6297 21.4216 10.0352 24.1088C9.81963 25.0856 10.6232 26 11.6432 26H24.3566C25.3774 26 26.181 25.0856 25.9645 24.1088Z" fill="white"/>
</mask>
<g mask="url(#mask0_6_374)">
<rect x="9.19995" y="9.2002" width="17.6" height="17.6" fill="white"/>
</g>
</svg>
