<svg width="130" height="130" viewBox="0 0 130 130" fill="none" xmlns="http://www.w3.org/2000/svg">
<g clip-path="url(#clip0_6_366)">
<path fill-rule="evenodd" clip-rule="evenodd" d="M129.6 64.8C129.6 100.588 100.588 129.6 64.8 129.6C29.0119 129.6 0 100.588 0 64.8C0 29.0119 29.0119 0 64.8 0C100.588 0 129.6 29.0119 129.6 64.8ZM105.6 65.0206C105.6 87.3333 87.3333 105.6 65.0206 105.6C42.2668 105.6 24 87.3333 24 65.0206C24 42.2669 42.2668 24.0001 65.0206 24.0001C87.3333 24.0001 105.6 42.2669 105.6 65.0206Z" fill="#EAECEE"/>
<path fill-rule="evenodd" clip-rule="evenodd" d="M123.676 91.9058C127.479 83.6591 129.6 74.4773 129.6 64.8C129.6 29.012 100.588 1.43109e-05 64.8 0V24.0007C64.8735 24.0003 64.947 24.0001 65.0206 24.0001C87.3333 24.0001 105.6 42.2669 105.6 65.0207C105.6 71.0272 104.276 76.7406 101.906 81.8833L123.676 91.9058Z" fill="#FACF55"/>
</g>
<defs>
<clipPath id="clip0_6_366">
<rect width="129.6" height="129.6" fill="white"/>
</clipPath>
</defs>
</svg>
