<svg width="131" height="130" viewBox="0 0 131 130" fill="none" xmlns="http://www.w3.org/2000/svg">
<path fill-rule="evenodd" clip-rule="evenodd" d="M130.018 65.0796C130.018 100.978 100.917 130.08 65.0184 130.08C29.1199 130.08 0.0184326 100.978 0.0184326 65.0796C0.0184326 29.1811 29.1199 0.0795898 65.0184 0.0795898C100.917 0.0795898 130.018 29.1811 130.018 65.0796ZM105.944 65.3007C105.944 87.6823 87.6212 106.005 65.2397 106.005C42.4157 106.005 24.0925 87.6823 24.0925 65.3007C24.0925 42.4767 42.4157 24.1536 65.2397 24.1536C87.6212 24.1536 105.944 42.4767 105.944 65.3007Z" fill="#EAECEE"/>
<path fill-rule="evenodd" clip-rule="evenodd" d="M65.0184 130.08C100.917 130.08 130.018 100.978 130.018 65.0796C130.018 29.1811 100.917 0.0795898 65.0184 0.0795898V24.1541C65.0921 24.1538 65.1659 24.1536 65.2397 24.1536C87.6212 24.1536 105.944 42.4767 105.944 65.3007C105.944 87.6823 87.6212 106.005 65.2397 106.005C42.4157 106.005 24.0925 87.6823 24.0925 65.3007C24.0925 61.8391 24.514 58.481 25.3087 55.2747L1.89884 49.4945C0.670152 54.4875 0.0184326 59.7074 0.0184326 65.0796C0.0184326 100.978 29.1199 130.08 65.0184 130.08Z" fill="#016450"/>
</svg>
